<?xml version="1.0" encoding="UTF-8" standalone="no"?><!DOCTYPE svg PUBLIC "-//W3C//DTD SVG 1.1//EN" "http://www.w3.org/Graphics/SVG/1.1/DTD/svg11.dtd"><!-- Generated by graphviz version 2.40.1 (20161225.0304)
 --><!-- Title: B&#45;2.c.012t.cfg Pages: 1 --><svg xmlns="http://www.w3.org/2000/svg" xmlns:xlink="http://www.w3.org/1999/xlink" width="302pt" height="892pt" viewBox="0.00 0.00 302.39 892.00">
<g id="graph0" class="graph" transform="scale(1 1) rotate(0) translate(4 888)">
<title>B-2.c.012t.cfg</title>
<polygon fill="#ffffff" stroke="transparent" points="-4,4 -4,-888 298.3902,-888 298.3902,4 -4,4"/>
<g id="clust1" class="cluster">
<title>cluster_main</title>
<polygon fill="none" stroke="#000000" stroke-dasharray="5,2" points="8.3902,-8 8.3902,-876 286.3902,-876 286.3902,-8 8.3902,-8"/>
<text text-anchor="middle" x="147.3902" y="-859.4" font-family="Times,serif" font-size="14.00" fill="#000000">main ()</text>
</g>
<g id="clust2" class="cluster">
<title>cluster_0_1</title>
<polygon fill="#e0e0e0" stroke="#006400" stroke-width="2" points="126.3902,-241.8 126.3902,-620.6 278.3902,-620.6 278.3902,-241.8 126.3902,-241.8"/>
<text text-anchor="middle" x="152.0855" y="-604" font-family="Times,serif" font-size="14.00" fill="#000000">loop 1</text>
</g>
<!-- fn_0_basic_block_4 -->
<g id="node1" class="node">
<title>fn_0_basic_block_4</title>
<polygon fill="#d3d3d3" stroke="#000000" points="134.0075,-453.7 134.0075,-587.3 270.7729,-587.3 270.7729,-453.7 134.0075,-453.7"/>
<text text-anchor="start" x="142.0075" y="-570.7" font-family="Times,serif" font-size="14.00" fill="#000000">&lt;bb 4&gt;:</text>
<text text-anchor="middle" x="202.3902" y="-553.9" font-family="Times,serif" font-size="14.00" fill="#000000"></text>
<polyline fill="none" stroke="#000000" points="134.0075,-545.7 270.7729,-545.7 "/>
<text text-anchor="start" x="142.0075" y="-529.1" font-family="Times,serif" font-size="14.00" fill="#000000">if (i &lt;= 3)</text>
<text text-anchor="start" x="142.0075" y="-512.3" font-family="Times,serif" font-size="14.00" fill="#000000">  goto &lt;bb 3&gt;; [INV]</text>
<text text-anchor="start" x="142.0075" y="-495.5" font-family="Times,serif" font-size="14.00" fill="#000000">else</text>
<text text-anchor="start" x="142.0075" y="-478.7" font-family="Times,serif" font-size="14.00" fill="#000000">  goto &lt;bb 5&gt;; [INV]</text>
<text text-anchor="middle" x="202.3902" y="-461.9" font-family="Times,serif" font-size="14.00" fill="#000000"></text>
</g>
<!-- fn_0_basic_block_3 -->
<g id="node2" class="node">
<title>fn_0_basic_block_3</title>
<polygon fill="#d3d3d3" stroke="#000000" points="154.0324,-250.3 154.0324,-416.7 250.748,-416.7 250.748,-250.3 154.0324,-250.3"/>
<text text-anchor="start" x="162.0324" y="-400.1" font-family="Times,serif" font-size="14.00" fill="#000000">&lt;bb 3&gt;:</text>
<text text-anchor="middle" x="202.3902" y="-383.3" font-family="Times,serif" font-size="14.00" fill="#000000"></text>
<polyline fill="none" stroke="#000000" points="154.0324,-375.1 250.748,-375.1 "/>
<text text-anchor="start" x="162.0324" y="-358.5" font-family="Times,serif" font-size="14.00" fill="#000000">N.0_1 = N;</text>
<text text-anchor="middle" x="202.3902" y="-341.7" font-family="Times,serif" font-size="14.00" fill="#000000"></text>
<polyline fill="none" stroke="#000000" points="154.0324,-333.5 250.748,-333.5 "/>
<text text-anchor="start" x="162.0324" y="-316.9" font-family="Times,serif" font-size="14.00" fill="#000000">a = a + N.0_1;</text>
<text text-anchor="middle" x="202.3902" y="-300.1" font-family="Times,serif" font-size="14.00" fill="#000000"></text>
<polyline fill="none" stroke="#000000" points="154.0324,-291.9 250.748,-291.9 "/>
<text text-anchor="start" x="162.0324" y="-275.3" font-family="Times,serif" font-size="14.00" fill="#000000">i = i + 1;</text>
<text text-anchor="middle" x="202.3902" y="-258.5" font-family="Times,serif" font-size="14.00" fill="#000000"></text>
</g>
<!-- fn_0_basic_block_4&#45;&gt;fn_0_basic_block_3 -->
<g id="edge4" class="edge">
<title>fn_0_basic_block_4:s-&gt;fn_0_basic_block_3:n</title>
<path fill="none" stroke="#000000" stroke-width="2" d="M202.3902,-453.5C202.3902,-441.0382 202.3902,-435.6592 202.3902,-426.6281"/>
<polygon fill="#000000" stroke="#000000" stroke-width="2" points="205.8903,-426.5 202.3902,-416.5 198.8903,-426.5 205.8903,-426.5"/>
</g>
<!-- fn_0_basic_block_5 -->
<g id="node6" class="node">
<title>fn_0_basic_block_5</title>
<polygon fill="#d3d3d3" stroke="#000000" points="36.087,-291.9 36.087,-375.1 118.6934,-375.1 118.6934,-291.9 36.087,-291.9"/>
<text text-anchor="start" x="44.087" y="-358.5" font-family="Times,serif" font-size="14.00" fill="#000000">&lt;bb 5&gt;:</text>
<text text-anchor="middle" x="77.3902" y="-341.7" font-family="Times,serif" font-size="14.00" fill="#000000"></text>
<polyline fill="none" stroke="#000000" points="36.087,-333.5 118.6934,-333.5 "/>
<text text-anchor="start" x="44.087" y="-316.9" font-family="Times,serif" font-size="14.00" fill="#000000">D.1916 = a;</text>
<text text-anchor="middle" x="77.3902" y="-300.1" font-family="Times,serif" font-size="14.00" fill="#000000"></text>
</g>
<!-- fn_0_basic_block_4&#45;&gt;fn_0_basic_block_5 -->
<g id="edge5" class="edge">
<title>fn_0_basic_block_4:s-&gt;fn_0_basic_block_5:n</title>
<path fill="none" stroke="#000000" stroke-width="2" d="M202.3902,-453.5C202.3902,-414.4554 154.9063,-438.8145 122.3902,-417.2 102.8757,-404.2282 83.6681,-402.8925 78.6518,-385.4678"/>
<polygon fill="#000000" stroke="#000000" stroke-width="2" points="82.1183,-384.9813 77.3902,-375.5 75.1737,-385.8604 82.1183,-384.9813"/>
</g>
<!-- fn_0_basic_block_3&#45;&gt;fn_0_basic_block_4 -->
<g id="edge3" class="edge">
<title>fn_0_basic_block_3:s-&gt;fn_0_basic_block_4:n</title>
<path fill="none" stroke="#0000ff" stroke-width="2" stroke-dasharray="1,5" d="M202.3902,-250.5C202.3902,-229.0076 234.821,-236.069 250.748,-250.5 275.2206,-272.6741 308.3824,-549.8905 270.7729,-587.5 262.3781,-595.8948 225.3627,-600.4477 209.5701,-594.7918"/>
<polygon fill="#0000ff" stroke="#0000ff" stroke-width="2" points="211.9003,-592.1699 202.3902,-587.5 206.9125,-597.0812 211.9003,-592.1699"/>
</g>
<!-- fn_0_basic_block_0 -->
<g id="node3" class="node">
<title>fn_0_basic_block_0</title>
<polygon fill="#ffffff" stroke="#000000" points="202.3902,-843.2 141.1502,-825.2 202.3902,-807.2 263.6301,-825.2 202.3902,-843.2"/>
<polyline fill="none" stroke="#000000" points="152.6632,-828.584 152.6632,-821.816 "/>
<polyline fill="none" stroke="#000000" points="190.8772,-810.584 213.9032,-810.584 "/>
<polyline fill="none" stroke="#000000" points="252.1172,-821.816 252.1172,-828.584 "/>
<polyline fill="none" stroke="#000000" points="213.9032,-839.816 190.8772,-839.816 "/>
<text text-anchor="middle" x="202.3902" y="-821" font-family="Times,serif" font-size="14.00" fill="#000000">ENTRY</text>
</g>
<!-- fn_0_basic_block_1 -->
<g id="node4" class="node">
<title>fn_0_basic_block_1</title>
<polygon fill="#ffffff" stroke="#000000" points="85.3902,-52 38.4904,-34 85.3902,-16 132.29,-34 85.3902,-52"/>
<polyline fill="none" stroke="#000000" points="49.6936,-38.2998 49.6936,-29.7002 "/>
<polyline fill="none" stroke="#000000" points="74.187,-20.2998 96.5934,-20.2998 "/>
<polyline fill="none" stroke="#000000" points="121.0867,-29.7002 121.0867,-38.2998 "/>
<polyline fill="none" stroke="#000000" points="96.5934,-47.7002 74.187,-47.7002 "/>
<text text-anchor="middle" x="85.3902" y="-29.8" font-family="Times,serif" font-size="14.00" fill="#000000">EXIT</text>
</g>
<!-- fn_0_basic_block_0&#45;&gt;fn_0_basic_block_1 -->
<!-- fn_0_basic_block_2 -->
<g id="node5" class="node">
<title>fn_0_basic_block_2</title>
<polygon fill="#d3d3d3" stroke="#000000" points="137.5075,-629.1 137.5075,-770.7 267.2729,-770.7 267.2729,-629.1 137.5075,-629.1"/>
<text text-anchor="start" x="145.5075" y="-754.1" font-family="Times,serif" font-size="14.00" fill="#000000">&lt;bb 2&gt;:</text>
<text text-anchor="middle" x="202.3902" y="-737.3" font-family="Times,serif" font-size="14.00" fill="#000000"></text>
<polyline fill="none" stroke="#000000" points="137.5075,-729.1 267.2729,-729.1 "/>
<text text-anchor="start" x="145.5075" y="-712.5" font-family="Times,serif" font-size="14.00" fill="#000000">a = 10;</text>
<text text-anchor="middle" x="202.3902" y="-695.7" font-family="Times,serif" font-size="14.00" fill="#000000"></text>
<polyline fill="none" stroke="#000000" points="137.5075,-687.5 267.2729,-687.5 "/>
<text text-anchor="start" x="145.5075" y="-670.9" font-family="Times,serif" font-size="14.00" fill="#000000">i = 0;</text>
<text text-anchor="start" x="145.5075" y="-654.1" font-family="Times,serif" font-size="14.00" fill="#000000">goto &lt;bb 4&gt;; [INV]</text>
<text text-anchor="middle" x="202.3902" y="-637.3" font-family="Times,serif" font-size="14.00" fill="#000000"></text>
</g>
<!-- fn_0_basic_block_0&#45;&gt;fn_0_basic_block_2 -->
<g id="edge1" class="edge">
<title>fn_0_basic_block_0:s-&gt;fn_0_basic_block_2:n</title>
<path fill="none" stroke="#0000ff" stroke-width="2" d="M202.3902,-807.2C202.3902,-795.1 202.3902,-789.8063 202.3902,-781.1094"/>
<polygon fill="#0000ff" stroke="#0000ff" stroke-width="2" points="205.8903,-780.9 202.3902,-770.9 198.8903,-780.9 205.8903,-780.9"/>
</g>
<!-- fn_0_basic_block_2&#45;&gt;fn_0_basic_block_4 -->
<g id="edge2" class="edge">
<title>fn_0_basic_block_2:s-&gt;fn_0_basic_block_4:n</title>
<path fill="none" stroke="#0000ff" stroke-width="2" d="M202.3902,-628.9C202.3902,-614.3813 202.3902,-608.4547 202.3902,-597.5607"/>
<polygon fill="#0000ff" stroke="#0000ff" stroke-width="2" points="205.8903,-597.5 202.3902,-587.5 198.8903,-597.5 205.8903,-597.5"/>
</g>
<!-- fn_0_basic_block_6 -->
<g id="node7" class="node">
<title>fn_0_basic_block_6</title>
<polygon fill="#d3d3d3" stroke="#000000" points="36.1784,-88.5 36.1784,-213.3 134.602,-213.3 134.602,-88.5 36.1784,-88.5"/>
<text text-anchor="start" x="44.1784" y="-196.7" font-family="Times,serif" font-size="14.00" fill="#000000">&lt;bb 6&gt;:</text>
<text text-anchor="middle" x="85.3902" y="-179.9" font-family="Times,serif" font-size="14.00" fill="#000000"></text>
<polyline fill="none" stroke="#000000" points="36.1784,-171.7 134.602,-171.7 "/>
<text text-anchor="start" x="44.1784" y="-155.1" font-family="Times,serif" font-size="14.00" fill="#000000">&lt;L3&gt;:</text>
<text text-anchor="middle" x="85.3902" y="-138.3" font-family="Times,serif" font-size="14.00" fill="#000000"></text>
<polyline fill="none" stroke="#000000" points="36.1784,-130.1 134.602,-130.1 "/>
<text text-anchor="start" x="44.1784" y="-113.5" font-family="Times,serif" font-size="14.00" fill="#000000">return D.1916;</text>
<text text-anchor="middle" x="85.3902" y="-96.7" font-family="Times,serif" font-size="14.00" fill="#000000"></text>
</g>
<!-- fn_0_basic_block_5&#45;&gt;fn_0_basic_block_6 -->
<g id="edge6" class="edge">
<title>fn_0_basic_block_5:s-&gt;fn_0_basic_block_6:n</title>
<path fill="none" stroke="#0000ff" stroke-width="2" d="M77.3902,-291.5C77.3902,-260.0896 83.7917,-250.0773 85.142,-223.1806"/>
<polygon fill="#0000ff" stroke="#0000ff" stroke-width="2" points="88.6477,-222.9816 85.3902,-212.9 81.6497,-222.8126 88.6477,-222.9816"/>
</g>
<!-- fn_0_basic_block_6&#45;&gt;fn_0_basic_block_1 -->
<g id="edge7" class="edge">
<title>fn_0_basic_block_6:s-&gt;fn_0_basic_block_1:n</title>
<path fill="none" stroke="#000000" stroke-width="2" d="M85.3902,-88.9C85.3902,-76.4719 85.3902,-71.1074 85.3902,-62.1007"/>
<polygon fill="#000000" stroke="#000000" stroke-width="2" points="88.8903,-62 85.3902,-52 81.8903,-62 88.8903,-62"/>
</g>
</g>
</svg>