<?xml version="1.0" encoding="UTF-8" standalone="no"?><!DOCTYPE svg PUBLIC "-//W3C//DTD SVG 1.1//EN" "http://www.w3.org/Graphics/SVG/1.1/DTD/svg11.dtd"><!-- Generated by graphviz version 2.40.1 (20161225.0304)
 --><!-- Title: A&#45;4.c.012t.cfg Pages: 1 --><svg xmlns="http://www.w3.org/2000/svg" xmlns:xlink="http://www.w3.org/1999/xlink" width="351pt" height="1100pt" viewBox="0.00 0.00 350.57 1100.00">
<g id="graph0" class="graph" transform="scale(1 1) rotate(0) translate(4 1096)">
<title>A-4.c.012t.cfg</title>
<polygon fill="#ffffff" stroke="transparent" points="-4,4 -4,-1096 346.5726,-1096 346.5726,4 -4,4"/>
<g id="clust1" class="cluster">
<title>cluster_main</title>
<polygon fill="none" stroke="#000000" stroke-dasharray="5,2" points="8.2625,-8 8.2625,-1084 324.2625,-1084 324.2625,-8 8.2625,-8"/>
<text text-anchor="middle" x="166.2625" y="-1067.4" font-family="Times,serif" font-size="14.00" fill="#000000">main ()</text>
</g>
<g id="clust2" class="cluster">
<title>cluster_0_1</title>
<polygon fill="#e0e0e0" stroke="#006400" stroke-width="2" points="164.2625,-304.2 164.2625,-745.4 316.2625,-745.4 316.2625,-304.2 164.2625,-304.2"/>
<text text-anchor="middle" x="189.9578" y="-728.8" font-family="Times,serif" font-size="14.00" fill="#000000">loop 1</text>
</g>
<!-- fn_0_basic_block_4 -->
<g id="node1" class="node">
<title>fn_0_basic_block_4</title>
<polygon fill="#d3d3d3" stroke="#000000" points="171.8798,-578.5 171.8798,-712.1 308.6452,-712.1 308.6452,-578.5 171.8798,-578.5"/>
<text text-anchor="start" x="179.8798" y="-695.5" font-family="Times,serif" font-size="14.00" fill="#000000">&lt;bb 4&gt;:</text>
<text text-anchor="middle" x="240.2625" y="-678.7" font-family="Times,serif" font-size="14.00" fill="#000000"></text>
<polyline fill="none" stroke="#000000" points="171.8798,-670.5 308.6452,-670.5 "/>
<text text-anchor="start" x="179.8798" y="-653.9" font-family="Times,serif" font-size="14.00" fill="#000000">if (i &lt;= 2)</text>
<text text-anchor="start" x="179.8798" y="-637.1" font-family="Times,serif" font-size="14.00" fill="#000000">  goto &lt;bb 3&gt;; [INV]</text>
<text text-anchor="start" x="179.8798" y="-620.3" font-family="Times,serif" font-size="14.00" fill="#000000">else</text>
<text text-anchor="start" x="179.8798" y="-603.5" font-family="Times,serif" font-size="14.00" fill="#000000">  goto &lt;bb 5&gt;; [INV]</text>
<text text-anchor="middle" x="240.2625" y="-586.7" font-family="Times,serif" font-size="14.00" fill="#000000"></text>
</g>
<!-- fn_0_basic_block_3 -->
<g id="node2" class="node">
<title>fn_0_basic_block_3</title>
<polygon fill="#d3d3d3" stroke="#000000" points="205.764,-312.7 205.764,-479.1 274.761,-479.1 274.761,-312.7 205.764,-312.7"/>
<text text-anchor="start" x="213.764" y="-462.5" font-family="Times,serif" font-size="14.00" fill="#000000">&lt;bb 3&gt;:</text>
<text text-anchor="middle" x="240.2625" y="-445.7" font-family="Times,serif" font-size="14.00" fill="#000000"></text>
<polyline fill="none" stroke="#000000" points="205.764,-437.5 274.761,-437.5 "/>
<text text-anchor="start" x="213.764" y="-420.9" font-family="Times,serif" font-size="14.00" fill="#000000">_1 = b[i];</text>
<text text-anchor="middle" x="240.2625" y="-404.1" font-family="Times,serif" font-size="14.00" fill="#000000"></text>
<polyline fill="none" stroke="#000000" points="205.764,-395.9 274.761,-395.9 "/>
<text text-anchor="start" x="213.764" y="-379.3" font-family="Times,serif" font-size="14.00" fill="#000000">a[i] = _1;</text>
<text text-anchor="middle" x="240.2625" y="-362.5" font-family="Times,serif" font-size="14.00" fill="#000000"></text>
<polyline fill="none" stroke="#000000" points="205.764,-354.3 274.761,-354.3 "/>
<text text-anchor="start" x="213.764" y="-337.7" font-family="Times,serif" font-size="14.00" fill="#000000">i = i + 1;</text>
<text text-anchor="middle" x="240.2625" y="-320.9" font-family="Times,serif" font-size="14.00" fill="#000000"></text>
</g>
<!-- fn_0_basic_block_4&#45;&gt;fn_0_basic_block_3 -->
<g id="edge4" class="edge">
<title>fn_0_basic_block_4:s-&gt;fn_0_basic_block_3:n</title>
<path fill="none" stroke="#000000" stroke-width="2" d="M240.2625,-578.3C240.2625,-537.7462 240.2625,-525.1127 240.2625,-489.1396"/>
<polygon fill="#000000" stroke="#000000" stroke-width="2" points="243.7626,-488.9 240.2625,-478.9 236.7626,-488.9 243.7626,-488.9"/>
</g>
<!-- fn_0_basic_block_5 -->
<g id="node6" class="node">
<title>fn_0_basic_block_5</title>
<polygon fill="#d3d3d3" stroke="#000000" points="36.3722,-250.3 36.3722,-541.5 156.1528,-541.5 156.1528,-250.3 36.3722,-250.3"/>
<text text-anchor="start" x="44.3722" y="-524.9" font-family="Times,serif" font-size="14.00" fill="#000000">&lt;bb 5&gt;:</text>
<text text-anchor="middle" x="96.2625" y="-508.1" font-family="Times,serif" font-size="14.00" fill="#000000"></text>
<polyline fill="none" stroke="#000000" points="36.3722,-499.9 156.1528,-499.9 "/>
<text text-anchor="start" x="44.3722" y="-483.3" font-family="Times,serif" font-size="14.00" fill="#000000">p = &amp;a;</text>
<text text-anchor="middle" x="96.2625" y="-466.5" font-family="Times,serif" font-size="14.00" fill="#000000"></text>
<polyline fill="none" stroke="#000000" points="36.3722,-458.3 156.1528,-458.3 "/>
<text text-anchor="start" x="44.3722" y="-441.7" font-family="Times,serif" font-size="14.00" fill="#000000">_2 = p + 8;</text>
<text text-anchor="middle" x="96.2625" y="-424.9" font-family="Times,serif" font-size="14.00" fill="#000000"></text>
<polyline fill="none" stroke="#000000" points="36.3722,-416.7 156.1528,-416.7 "/>
<text text-anchor="start" x="44.3722" y="-400.1" font-family="Times,serif" font-size="14.00" fill="#000000">*_2 = 5;</text>
<text text-anchor="middle" x="96.2625" y="-383.3" font-family="Times,serif" font-size="14.00" fill="#000000"></text>
<polyline fill="none" stroke="#000000" points="36.3722,-375.1 156.1528,-375.1 "/>
<text text-anchor="start" x="44.3722" y="-358.5" font-family="Times,serif" font-size="14.00" fill="#000000">a = {CLOBBER};</text>
<text text-anchor="middle" x="96.2625" y="-341.7" font-family="Times,serif" font-size="14.00" fill="#000000"></text>
<polyline fill="none" stroke="#000000" points="36.3722,-333.5 156.1528,-333.5 "/>
<text text-anchor="start" x="44.3722" y="-316.9" font-family="Times,serif" font-size="14.00" fill="#000000">b = {CLOBBER};</text>
<text text-anchor="middle" x="96.2625" y="-300.1" font-family="Times,serif" font-size="14.00" fill="#000000"></text>
<polyline fill="none" stroke="#000000" points="36.3722,-291.9 156.1528,-291.9 "/>
<text text-anchor="start" x="44.3722" y="-275.3" font-family="Times,serif" font-size="14.00" fill="#000000">D.1917 = 0;</text>
<text text-anchor="middle" x="96.2625" y="-258.5" font-family="Times,serif" font-size="14.00" fill="#000000"></text>
</g>
<!-- fn_0_basic_block_4&#45;&gt;fn_0_basic_block_5 -->
<g id="edge5" class="edge">
<title>fn_0_basic_block_4:s-&gt;fn_0_basic_block_5:n</title>
<path fill="none" stroke="#000000" stroke-width="2" d="M240.2625,-578.3C240.2625,-516.1549 112.6431,-597.2618 97.6877,-551.9041"/>
<polygon fill="#000000" stroke="#000000" stroke-width="2" points="101.138,-551.3064 96.2625,-541.9 94.208,-552.2937 101.138,-551.3064"/>
</g>
<!-- fn_0_basic_block_3&#45;&gt;fn_0_basic_block_4 -->
<g id="edge3" class="edge">
<title>fn_0_basic_block_3:s-&gt;fn_0_basic_block_4:n</title>
<path fill="none" stroke="#0000ff" stroke-width="2" stroke-dasharray="1,5" d="M240.2625,-312.9C240.2625,-297.5673 263.2524,-302.7687 274.761,-312.9 342.4598,-372.4965 369.1706,-651.7746 308.6452,-712.3 300.2505,-720.6948 263.235,-725.2477 247.4425,-719.5918"/>
<polygon fill="#0000ff" stroke="#0000ff" stroke-width="2" points="249.7727,-716.9699 240.2625,-712.3 244.7848,-721.8812 249.7727,-716.9699"/>
</g>
<!-- fn_0_basic_block_0 -->
<g id="node3" class="node">
<title>fn_0_basic_block_0</title>
<polygon fill="#ffffff" stroke="#000000" points="240.2625,-1051.2 179.0225,-1033.2 240.2625,-1015.2 301.5025,-1033.2 240.2625,-1051.2"/>
<polyline fill="none" stroke="#000000" points="190.5355,-1036.584 190.5355,-1029.816 "/>
<polyline fill="none" stroke="#000000" points="228.7495,-1018.584 251.7755,-1018.584 "/>
<polyline fill="none" stroke="#000000" points="289.9895,-1029.816 289.9895,-1036.584 "/>
<polyline fill="none" stroke="#000000" points="251.7755,-1047.816 228.7495,-1047.816 "/>
<text text-anchor="middle" x="240.2625" y="-1029" font-family="Times,serif" font-size="14.00" fill="#000000">ENTRY</text>
</g>
<!-- fn_0_basic_block_1 -->
<g id="node4" class="node">
<title>fn_0_basic_block_1</title>
<polygon fill="#ffffff" stroke="#000000" points="96.2625,-52 49.3627,-34 96.2625,-16 143.1623,-34 96.2625,-52"/>
<polyline fill="none" stroke="#000000" points="60.566,-38.2998 60.566,-29.7002 "/>
<polyline fill="none" stroke="#000000" points="85.0593,-20.2998 107.4657,-20.2998 "/>
<polyline fill="none" stroke="#000000" points="131.9591,-29.7002 131.9591,-38.2998 "/>
<polyline fill="none" stroke="#000000" points="107.4657,-47.7002 85.0593,-47.7002 "/>
<text text-anchor="middle" x="96.2625" y="-29.8" font-family="Times,serif" font-size="14.00" fill="#000000">EXIT</text>
</g>
<!-- fn_0_basic_block_0&#45;&gt;fn_0_basic_block_1 -->
<!-- fn_0_basic_block_2 -->
<g id="node5" class="node">
<title>fn_0_basic_block_2</title>
<polygon fill="#d3d3d3" stroke="#000000" points="175.3798,-753.9 175.3798,-978.7 305.1452,-978.7 305.1452,-753.9 175.3798,-753.9"/>
<text text-anchor="start" x="183.3798" y="-962.1" font-family="Times,serif" font-size="14.00" fill="#000000">&lt;bb 2&gt;:</text>
<text text-anchor="middle" x="240.2625" y="-945.3" font-family="Times,serif" font-size="14.00" fill="#000000"></text>
<polyline fill="none" stroke="#000000" points="175.3798,-937.1 305.1452,-937.1 "/>
<text text-anchor="start" x="183.3798" y="-920.5" font-family="Times,serif" font-size="14.00" fill="#000000">b[0] = 1;</text>
<text text-anchor="middle" x="240.2625" y="-903.7" font-family="Times,serif" font-size="14.00" fill="#000000"></text>
<polyline fill="none" stroke="#000000" points="175.3798,-895.5 305.1452,-895.5 "/>
<text text-anchor="start" x="183.3798" y="-878.9" font-family="Times,serif" font-size="14.00" fill="#000000">b[1] = 2;</text>
<text text-anchor="middle" x="240.2625" y="-862.1" font-family="Times,serif" font-size="14.00" fill="#000000"></text>
<polyline fill="none" stroke="#000000" points="175.3798,-853.9 305.1452,-853.9 "/>
<text text-anchor="start" x="183.3798" y="-837.3" font-family="Times,serif" font-size="14.00" fill="#000000">b[2] = 3;</text>
<text text-anchor="middle" x="240.2625" y="-820.5" font-family="Times,serif" font-size="14.00" fill="#000000"></text>
<polyline fill="none" stroke="#000000" points="175.3798,-812.3 305.1452,-812.3 "/>
<text text-anchor="start" x="183.3798" y="-795.7" font-family="Times,serif" font-size="14.00" fill="#000000">i = 0;</text>
<text text-anchor="start" x="183.3798" y="-778.9" font-family="Times,serif" font-size="14.00" fill="#000000">goto &lt;bb 4&gt;; [INV]</text>
<text text-anchor="middle" x="240.2625" y="-762.1" font-family="Times,serif" font-size="14.00" fill="#000000"></text>
</g>
<!-- fn_0_basic_block_0&#45;&gt;fn_0_basic_block_2 -->
<g id="edge1" class="edge">
<title>fn_0_basic_block_0:s-&gt;fn_0_basic_block_2:n</title>
<path fill="none" stroke="#0000ff" stroke-width="2" d="M240.2625,-1015.2C240.2625,-1002.7719 240.2625,-997.4074 240.2625,-988.4007"/>
<polygon fill="#0000ff" stroke="#0000ff" stroke-width="2" points="243.7626,-988.3 240.2625,-978.3 236.7626,-988.3 243.7626,-988.3"/>
</g>
<!-- fn_0_basic_block_2&#45;&gt;fn_0_basic_block_4 -->
<g id="edge2" class="edge">
<title>fn_0_basic_block_2:s-&gt;fn_0_basic_block_4:n</title>
<path fill="none" stroke="#0000ff" stroke-width="2" d="M240.2625,-754.3C240.2625,-739.5708 240.2625,-733.5583 240.2625,-722.5065"/>
<polygon fill="#0000ff" stroke="#0000ff" stroke-width="2" points="243.7626,-722.3 240.2625,-712.3 236.7626,-722.3 243.7626,-722.3"/>
</g>
<!-- fn_0_basic_block_6 -->
<g id="node7" class="node">
<title>fn_0_basic_block_6</title>
<polygon fill="#d3d3d3" stroke="#000000" points="47.0507,-88.5 47.0507,-213.3 145.4743,-213.3 145.4743,-88.5 47.0507,-88.5"/>
<text text-anchor="start" x="55.0507" y="-196.7" font-family="Times,serif" font-size="14.00" fill="#000000">&lt;bb 6&gt;:</text>
<text text-anchor="middle" x="96.2625" y="-179.9" font-family="Times,serif" font-size="14.00" fill="#000000"></text>
<polyline fill="none" stroke="#000000" points="47.0507,-171.7 145.4743,-171.7 "/>
<text text-anchor="start" x="55.0507" y="-155.1" font-family="Times,serif" font-size="14.00" fill="#000000">&lt;L3&gt;:</text>
<text text-anchor="middle" x="96.2625" y="-138.3" font-family="Times,serif" font-size="14.00" fill="#000000"></text>
<polyline fill="none" stroke="#000000" points="47.0507,-130.1 145.4743,-130.1 "/>
<text text-anchor="start" x="55.0507" y="-113.5" font-family="Times,serif" font-size="14.00" fill="#000000">return D.1917;</text>
<text text-anchor="middle" x="96.2625" y="-96.7" font-family="Times,serif" font-size="14.00" fill="#000000"></text>
</g>
<!-- fn_0_basic_block_5&#45;&gt;fn_0_basic_block_6 -->
<g id="edge6" class="edge">
<title>fn_0_basic_block_5:s-&gt;fn_0_basic_block_6:n</title>
<path fill="none" stroke="#0000ff" stroke-width="2" d="M96.2625,-249.9C96.2625,-237.4382 96.2625,-232.0592 96.2625,-223.0281"/>
<polygon fill="#0000ff" stroke="#0000ff" stroke-width="2" points="99.7626,-222.9 96.2625,-212.9 92.7626,-222.9 99.7626,-222.9"/>
</g>
<!-- fn_0_basic_block_6&#45;&gt;fn_0_basic_block_1 -->
<g id="edge7" class="edge">
<title>fn_0_basic_block_6:s-&gt;fn_0_basic_block_1:n</title>
<path fill="none" stroke="#000000" stroke-width="2" d="M96.2625,-88.9C96.2625,-76.4719 96.2625,-71.1074 96.2625,-62.1007"/>
<polygon fill="#000000" stroke="#000000" stroke-width="2" points="99.7626,-62 96.2625,-52 92.7626,-62 99.7626,-62"/>
</g>
</g>
</svg>