<?xml version="1.0" encoding="UTF-8" standalone="no"?><!DOCTYPE svg PUBLIC "-//W3C//DTD SVG 1.1//EN" "http://www.w3.org/Graphics/SVG/1.1/DTD/svg11.dtd"><!-- Generated by graphviz version 2.40.1 (20161225.0304)
 --><!-- Title: A&#45;3.c.012t.cfg Pages: 1 --><svg xmlns="http://www.w3.org/2000/svg" xmlns:xlink="http://www.w3.org/1999/xlink" width="439pt" height="1257pt" viewBox="0.00 0.00 438.78 1257.40">
<g id="graph0" class="graph" transform="scale(1 1) rotate(0) translate(4 1253.4)">
<title>A-3.c.012t.cfg</title>
<polygon fill="#ffffff" stroke="transparent" points="-4,4 -4,-1253.4 434.7758,-1253.4 434.7758,4 -4,4"/>
<g id="clust1" class="cluster">
<title>cluster_main</title>
<polygon fill="none" stroke="#000000" stroke-dasharray="5,2" points="8,-8 8,-1241.4 390,-1241.4 390,-8 8,-8"/>
<text text-anchor="middle" x="199" y="-1224.8" font-family="Times,serif" font-size="14.00" fill="#000000">main ()</text>
</g>
<g id="clust2" class="cluster">
<title>cluster_0_2</title>
<polygon fill="#e0e0e0" stroke="#006400" stroke-width="2" points="142,-16 142,-715.2 382,-715.2 382,-16 142,-16"/>
<text text-anchor="middle" x="167.6953" y="-698.6" font-family="Times,serif" font-size="14.00" fill="#000000">loop 2</text>
</g>
<g id="clust3" class="cluster">
<title>cluster_0_3</title>
<polygon fill="#c4c4c4" stroke="#006400" stroke-width="2" points="150,-24 150,-402.8 302,-402.8 302,-24 150,-24"/>
<text text-anchor="middle" x="175.6953" y="-386.2" font-family="Times,serif" font-size="14.00" fill="#000000">loop 3</text>
</g>
<g id="clust4" class="cluster">
<title>cluster_0_1</title>
<polygon fill="#e0e0e0" stroke="#006400" stroke-width="2" points="230,-723.6 230,-1027.6 382,-1027.6 382,-723.6 230,-723.6"/>
<text text-anchor="middle" x="255.6953" y="-1011" font-family="Times,serif" font-size="14.00" fill="#000000">loop 1</text>
</g>
<!-- fn_0_basic_block_8 -->
<g id="node1" class="node">
<title>fn_0_basic_block_8</title>
<polygon fill="#d3d3d3" stroke="#000000" points="157.6173,-235.9 157.6173,-369.5 294.3827,-369.5 294.3827,-235.9 157.6173,-235.9"/>
<text text-anchor="start" x="165.6173" y="-352.9" font-family="Times,serif" font-size="14.00" fill="#000000">&lt;bb 8&gt;:</text>
<text text-anchor="middle" x="226" y="-336.1" font-family="Times,serif" font-size="14.00" fill="#000000"></text>
<polyline fill="none" stroke="#000000" points="157.6173,-327.9 294.3827,-327.9 "/>
<text text-anchor="start" x="165.6173" y="-311.3" font-family="Times,serif" font-size="14.00" fill="#000000">if (j &lt;= 49)</text>
<text text-anchor="start" x="165.6173" y="-294.5" font-family="Times,serif" font-size="14.00" fill="#000000">  goto &lt;bb 7&gt;; [INV]</text>
<text text-anchor="start" x="165.6173" y="-277.7" font-family="Times,serif" font-size="14.00" fill="#000000">else</text>
<text text-anchor="start" x="165.6173" y="-260.9" font-family="Times,serif" font-size="14.00" fill="#000000">  goto &lt;bb 9&gt;; [INV]</text>
<text text-anchor="middle" x="226" y="-244.1" font-family="Times,serif" font-size="14.00" fill="#000000"></text>
</g>
<!-- fn_0_basic_block_7 -->
<g id="node2" class="node">
<title>fn_0_basic_block_7</title>
<polygon fill="#d3d3d3" stroke="#000000" points="170.8249,-32.5 170.8249,-198.9 281.1751,-198.9 281.1751,-32.5 170.8249,-32.5"/>
<text text-anchor="start" x="178.8249" y="-182.3" font-family="Times,serif" font-size="14.00" fill="#000000">&lt;bb 7&gt;:</text>
<text text-anchor="middle" x="226" y="-165.5" font-family="Times,serif" font-size="14.00" fill="#000000"></text>
<polyline fill="none" stroke="#000000" points="170.8249,-157.3 281.1751,-157.3 "/>
<text text-anchor="start" x="178.8249" y="-140.7" font-family="Times,serif" font-size="14.00" fill="#000000">_1 = i * j;</text>
<text text-anchor="middle" x="226" y="-123.9" font-family="Times,serif" font-size="14.00" fill="#000000"></text>
<polyline fill="none" stroke="#000000" points="170.8249,-115.7 281.1751,-115.7 "/>
<text text-anchor="start" x="178.8249" y="-99.1" font-family="Times,serif" font-size="14.00" fill="#000000">sum = sum + _1;</text>
<text text-anchor="middle" x="226" y="-82.3" font-family="Times,serif" font-size="14.00" fill="#000000"></text>
<polyline fill="none" stroke="#000000" points="170.8249,-74.1 281.1751,-74.1 "/>
<text text-anchor="start" x="178.8249" y="-57.5" font-family="Times,serif" font-size="14.00" fill="#000000">j = j + 1;</text>
<text text-anchor="middle" x="226" y="-40.7" font-family="Times,serif" font-size="14.00" fill="#000000"></text>
</g>
<!-- fn_0_basic_block_8&#45;&gt;fn_0_basic_block_7 -->
<g id="edge9" class="edge">
<title>fn_0_basic_block_8:s-&gt;fn_0_basic_block_7:n</title>
<path fill="none" stroke="#000000" stroke-width="2" d="M226,-235.7C226,-223.2382 226,-217.8592 226,-208.8281"/>
<polygon fill="#000000" stroke="#000000" stroke-width="2" points="229.5001,-208.7 226,-198.7 222.5001,-208.7 229.5001,-208.7"/>
</g>
<!-- fn_0_basic_block_9 -->
<g id="node5" class="node">
<title>fn_0_basic_block_9</title>
<polygon fill="#d3d3d3" stroke="#000000" points="309.7695,-74.1 309.7695,-157.3 374.2305,-157.3 374.2305,-74.1 309.7695,-74.1"/>
<text text-anchor="start" x="317.7695" y="-140.7" font-family="Times,serif" font-size="14.00" fill="#000000">&lt;bb 9&gt;:</text>
<text text-anchor="middle" x="342" y="-123.9" font-family="Times,serif" font-size="14.00" fill="#000000"></text>
<polyline fill="none" stroke="#000000" points="309.7695,-115.7 374.2305,-115.7 "/>
<text text-anchor="start" x="317.7695" y="-99.1" font-family="Times,serif" font-size="14.00" fill="#000000">i = i + 1;</text>
<text text-anchor="middle" x="342" y="-82.3" font-family="Times,serif" font-size="14.00" fill="#000000"></text>
</g>
<!-- fn_0_basic_block_8&#45;&gt;fn_0_basic_block_9 -->
<g id="edge10" class="edge">
<title>fn_0_basic_block_8:s-&gt;fn_0_basic_block_9:n</title>
<path fill="none" stroke="#000000" stroke-width="2" d="M226,-235.7C226,-196.6554 274.7361,-222.7891 306,-199.4 322.5419,-187.0247 336.7982,-183.2767 340.8495,-167.7003"/>
<polygon fill="#000000" stroke="#000000" stroke-width="2" points="344.3341,-168.0345 342,-157.7 337.3799,-167.2344 344.3341,-168.0345"/>
</g>
<!-- fn_0_basic_block_7&#45;&gt;fn_0_basic_block_8 -->
<g id="edge8" class="edge">
<title>fn_0_basic_block_7:s-&gt;fn_0_basic_block_8:n</title>
<path fill="none" stroke="#0000ff" stroke-width="2" stroke-dasharray="1,5" d="M226,-32.7C226,-8.1777 263.5862,-15.6128 281.1751,-32.7 287.8205,-39.1559 284.8095,-190.2118 286,-199.4 288.111,-215.6918 292.5076,-219.0793 294.3827,-235.4 295.2343,-242.8124 299.6585,-364.4242 294.3827,-369.7 285.9879,-378.0948 248.9725,-382.6477 233.18,-376.9918"/>
<polygon fill="#0000ff" stroke="#0000ff" stroke-width="2" points="235.5102,-374.3699 226,-369.7 230.5223,-379.2812 235.5102,-374.3699"/>
</g>
<!-- fn_0_basic_block_10 -->
<g id="node3" class="node">
<title>fn_0_basic_block_10</title>
<polygon fill="#d3d3d3" stroke="#000000" points="150.1173,-548.3 150.1173,-681.9 293.8827,-681.9 293.8827,-548.3 150.1173,-548.3"/>
<text text-anchor="start" x="158.1173" y="-665.3" font-family="Times,serif" font-size="14.00" fill="#000000">&lt;bb 10&gt;:</text>
<text text-anchor="middle" x="222" y="-648.5" font-family="Times,serif" font-size="14.00" fill="#000000"></text>
<polyline fill="none" stroke="#000000" points="150.1173,-640.3 293.8827,-640.3 "/>
<text text-anchor="start" x="158.1173" y="-623.7" font-family="Times,serif" font-size="14.00" fill="#000000">if (i &lt;= 24)</text>
<text text-anchor="start" x="158.1173" y="-606.9" font-family="Times,serif" font-size="14.00" fill="#000000">  goto &lt;bb 6&gt;; [INV]</text>
<text text-anchor="start" x="158.1173" y="-590.1" font-family="Times,serif" font-size="14.00" fill="#000000">else</text>
<text text-anchor="start" x="158.1173" y="-573.3" font-family="Times,serif" font-size="14.00" fill="#000000">  goto &lt;bb 11&gt;; [INV]</text>
<text text-anchor="middle" x="222" y="-556.5" font-family="Times,serif" font-size="14.00" fill="#000000"></text>
</g>
<!-- fn_0_basic_block_6 -->
<g id="node4" class="node">
<title>fn_0_basic_block_6</title>
<polygon fill="#d3d3d3" stroke="#000000" points="161.1173,-411.3 161.1173,-511.3 290.8827,-511.3 290.8827,-411.3 161.1173,-411.3"/>
<text text-anchor="start" x="169.1173" y="-494.7" font-family="Times,serif" font-size="14.00" fill="#000000">&lt;bb 6&gt;:</text>
<text text-anchor="middle" x="226" y="-477.9" font-family="Times,serif" font-size="14.00" fill="#000000"></text>
<polyline fill="none" stroke="#000000" points="161.1173,-469.7 290.8827,-469.7 "/>
<text text-anchor="start" x="169.1173" y="-453.1" font-family="Times,serif" font-size="14.00" fill="#000000">j = 0;</text>
<text text-anchor="start" x="169.1173" y="-436.3" font-family="Times,serif" font-size="14.00" fill="#000000">goto &lt;bb 8&gt;; [INV]</text>
<text text-anchor="middle" x="226" y="-419.5" font-family="Times,serif" font-size="14.00" fill="#000000"></text>
</g>
<!-- fn_0_basic_block_10&#45;&gt;fn_0_basic_block_6 -->
<g id="edge12" class="edge">
<title>fn_0_basic_block_10:s-&gt;fn_0_basic_block_6:n</title>
<path fill="none" stroke="#000000" stroke-width="2" d="M222,-548.1C222,-535.6326 224.2971,-530.3756 225.4098,-521.4007"/>
<polygon fill="#000000" stroke="#000000" stroke-width="2" points="228.9106,-521.4872 226,-511.3 221.9225,-521.0788 228.9106,-521.4872"/>
</g>
<!-- fn_0_basic_block_11 -->
<g id="node12" class="node">
<title>fn_0_basic_block_11</title>
<polygon fill="#d3d3d3" stroke="#000000" points="43.3041,-419.7 43.3041,-502.9 126.6959,-502.9 126.6959,-419.7 43.3041,-419.7"/>
<text text-anchor="start" x="51.3041" y="-486.3" font-family="Times,serif" font-size="14.00" fill="#000000">&lt;bb 11&gt;:</text>
<text text-anchor="middle" x="85" y="-469.5" font-family="Times,serif" font-size="14.00" fill="#000000"></text>
<polyline fill="none" stroke="#000000" points="43.3041,-461.3 126.6959,-461.3 "/>
<text text-anchor="start" x="51.3041" y="-444.7" font-family="Times,serif" font-size="14.00" fill="#000000">D.1922 = 0;</text>
<text text-anchor="middle" x="85" y="-427.9" font-family="Times,serif" font-size="14.00" fill="#000000"></text>
</g>
<!-- fn_0_basic_block_10&#45;&gt;fn_0_basic_block_11 -->
<g id="edge13" class="edge">
<title>fn_0_basic_block_10:s-&gt;fn_0_basic_block_11:n</title>
<path fill="none" stroke="#000000" stroke-width="2" d="M222,-548.1C222,-487.917 101.0876,-557.8121 86.4459,-513.3807"/>
<polygon fill="#000000" stroke="#000000" stroke-width="2" points="89.8844,-512.7018 85,-503.3 82.9553,-513.6956 89.8844,-512.7018"/>
</g>
<!-- fn_0_basic_block_6&#45;&gt;fn_0_basic_block_8 -->
<g id="edge7" class="edge">
<title>fn_0_basic_block_6:s-&gt;fn_0_basic_block_8:n</title>
<path fill="none" stroke="#0000ff" stroke-width="2" d="M226,-411.3C226,-396.7111 226,-390.7559 226,-379.8093"/>
<polygon fill="#0000ff" stroke="#0000ff" stroke-width="2" points="229.5001,-379.7 226,-369.7 222.5001,-379.7 229.5001,-379.7"/>
</g>
<!-- fn_0_basic_block_9&#45;&gt;fn_0_basic_block_10 -->
<g id="edge11" class="edge">
<title>fn_0_basic_block_9:s-&gt;fn_0_basic_block_10:n</title>
<path fill="none" stroke="#0000ff" stroke-width="2" stroke-dasharray="1,5" d="M342,-73.7C342,-73.7 374.2305,-157.8 374.2305,-157.8 356.3237,-392.8615 472.7583,-528.5484 293.8827,-682.1 284.3188,-690.3099 245.0923,-695.5092 228.9692,-689.4896"/>
<polygon fill="#0000ff" stroke="#0000ff" stroke-width="2" points="231.4074,-686.9736 222,-682.1 226.3149,-691.7764 231.4074,-686.9736"/>
</g>
<!-- fn_0_basic_block_4 -->
<g id="node6" class="node">
<title>fn_0_basic_block_4</title>
<polygon fill="#d3d3d3" stroke="#000000" points="237.6173,-860.7 237.6173,-994.3 374.3827,-994.3 374.3827,-860.7 237.6173,-860.7"/>
<text text-anchor="start" x="245.6173" y="-977.7" font-family="Times,serif" font-size="14.00" fill="#000000">&lt;bb 4&gt;:</text>
<text text-anchor="middle" x="306" y="-960.9" font-family="Times,serif" font-size="14.00" fill="#000000"></text>
<polyline fill="none" stroke="#000000" points="237.6173,-952.7 374.3827,-952.7 "/>
<text text-anchor="start" x="245.6173" y="-936.1" font-family="Times,serif" font-size="14.00" fill="#000000">if (sum &lt;= 99)</text>
<text text-anchor="start" x="245.6173" y="-919.3" font-family="Times,serif" font-size="14.00" fill="#000000">  goto &lt;bb 3&gt;; [INV]</text>
<text text-anchor="start" x="245.6173" y="-902.5" font-family="Times,serif" font-size="14.00" fill="#000000">else</text>
<text text-anchor="start" x="245.6173" y="-885.7" font-family="Times,serif" font-size="14.00" fill="#000000">  goto &lt;bb 5&gt;; [INV]</text>
<text text-anchor="middle" x="306" y="-868.9" font-family="Times,serif" font-size="14.00" fill="#000000"></text>
</g>
<!-- fn_0_basic_block_3 -->
<g id="node7" class="node">
<title>fn_0_basic_block_3</title>
<polygon fill="#d3d3d3" stroke="#000000" points="254.7722,-732.1 254.7722,-815.3 357.2278,-815.3 357.2278,-732.1 254.7722,-732.1"/>
<text text-anchor="start" x="262.7722" y="-798.7" font-family="Times,serif" font-size="14.00" fill="#000000">&lt;bb 3&gt;:</text>
<text text-anchor="middle" x="306" y="-781.9" font-family="Times,serif" font-size="14.00" fill="#000000"></text>
<polyline fill="none" stroke="#000000" points="254.7722,-773.7 357.2278,-773.7 "/>
<text text-anchor="start" x="262.7722" y="-757.1" font-family="Times,serif" font-size="14.00" fill="#000000">sum = sum * 2;</text>
<text text-anchor="middle" x="306" y="-740.3" font-family="Times,serif" font-size="14.00" fill="#000000"></text>
</g>
<!-- fn_0_basic_block_4&#45;&gt;fn_0_basic_block_3 -->
<g id="edge4" class="edge">
<title>fn_0_basic_block_4:s-&gt;fn_0_basic_block_3:n</title>
<path fill="none" stroke="#000000" stroke-width="2" d="M306,-860.5C306,-844.4778 306,-838.1252 306,-825.8802"/>
<polygon fill="#000000" stroke="#000000" stroke-width="2" points="309.5001,-825.7 306,-815.7 302.5001,-825.7 309.5001,-825.7"/>
</g>
<!-- fn_0_basic_block_5 -->
<g id="node11" class="node">
<title>fn_0_basic_block_5</title>
<polygon fill="#d3d3d3" stroke="#000000" points="85.6173,-723.7 85.6173,-823.7 222.3827,-823.7 222.3827,-723.7 85.6173,-723.7"/>
<text text-anchor="start" x="93.6173" y="-807.1" font-family="Times,serif" font-size="14.00" fill="#000000">&lt;bb 5&gt;:</text>
<text text-anchor="middle" x="154" y="-790.3" font-family="Times,serif" font-size="14.00" fill="#000000"></text>
<polyline fill="none" stroke="#000000" points="85.6173,-782.1 222.3827,-782.1 "/>
<text text-anchor="start" x="93.6173" y="-765.5" font-family="Times,serif" font-size="14.00" fill="#000000">i = 0;</text>
<text text-anchor="start" x="93.6173" y="-748.7" font-family="Times,serif" font-size="14.00" fill="#000000">goto &lt;bb 10&gt;; [INV]</text>
<text text-anchor="middle" x="154" y="-731.9" font-family="Times,serif" font-size="14.00" fill="#000000"></text>
</g>
<!-- fn_0_basic_block_4&#45;&gt;fn_0_basic_block_5 -->
<g id="edge5" class="edge">
<title>fn_0_basic_block_4:s-&gt;fn_0_basic_block_5:n</title>
<path fill="none" stroke="#000000" stroke-width="2" d="M306,-860.5C306,-794.7939 170.1704,-882.5411 155.314,-833.619"/>
<polygon fill="#000000" stroke="#000000" stroke-width="2" points="158.7831,-833.1537 154,-823.7 151.8437,-834.0731 158.7831,-833.1537"/>
</g>
<!-- fn_0_basic_block_3&#45;&gt;fn_0_basic_block_4 -->
<g id="edge3" class="edge">
<title>fn_0_basic_block_3:s-&gt;fn_0_basic_block_4:n</title>
<path fill="none" stroke="#0000ff" stroke-width="2" stroke-dasharray="1,5" d="M306,-731.7C306,-708.9321 340.0963,-716.7036 357.2278,-731.7 445.2997,-808.7955 457.1485,-911.7342 374.3827,-994.5 365.9879,-1002.8948 328.9725,-1007.4477 313.18,-1001.7918"/>
<polygon fill="#0000ff" stroke="#0000ff" stroke-width="2" points="315.5102,-999.1699 306,-994.5 310.5223,-1004.0812 315.5102,-999.1699"/>
</g>
<!-- fn_0_basic_block_0 -->
<g id="node8" class="node">
<title>fn_0_basic_block_0</title>
<polygon fill="#ffffff" stroke="#000000" points="306,-1208.6 244.76,-1190.6 306,-1172.6 367.24,-1190.6 306,-1208.6"/>
<polyline fill="none" stroke="#000000" points="256.273,-1193.984 256.273,-1187.216 "/>
<polyline fill="none" stroke="#000000" points="294.487,-1175.984 317.513,-1175.984 "/>
<polyline fill="none" stroke="#000000" points="355.727,-1187.216 355.727,-1193.984 "/>
<polyline fill="none" stroke="#000000" points="317.513,-1205.216 294.487,-1205.216 "/>
<text text-anchor="middle" x="306" y="-1186.4" font-family="Times,serif" font-size="14.00" fill="#000000">ENTRY</text>
</g>
<!-- fn_0_basic_block_1 -->
<g id="node9" class="node">
<title>fn_0_basic_block_1</title>
<polygon fill="#ffffff" stroke="#000000" points="85,-133.7 38.1002,-115.7 85,-97.7 131.8998,-115.7 85,-133.7"/>
<polyline fill="none" stroke="#000000" points="49.3034,-119.9998 49.3034,-111.4002 "/>
<polyline fill="none" stroke="#000000" points="73.7968,-101.9998 96.2032,-101.9998 "/>
<polyline fill="none" stroke="#000000" points="120.6966,-111.4002 120.6966,-119.9998 "/>
<polyline fill="none" stroke="#000000" points="96.2032,-129.4002 73.7968,-129.4002 "/>
<text text-anchor="middle" x="85" y="-111.5" font-family="Times,serif" font-size="14.00" fill="#000000">EXIT</text>
</g>
<!-- fn_0_basic_block_0&#45;&gt;fn_0_basic_block_1 -->
<!-- fn_0_basic_block_2 -->
<g id="node10" class="node">
<title>fn_0_basic_block_2</title>
<polygon fill="#d3d3d3" stroke="#000000" points="241.1173,-1036.1 241.1173,-1136.1 370.8827,-1136.1 370.8827,-1036.1 241.1173,-1036.1"/>
<text text-anchor="start" x="249.1173" y="-1119.5" font-family="Times,serif" font-size="14.00" fill="#000000">&lt;bb 2&gt;:</text>
<text text-anchor="middle" x="306" y="-1102.7" font-family="Times,serif" font-size="14.00" fill="#000000"></text>
<polyline fill="none" stroke="#000000" points="241.1173,-1094.5 370.8827,-1094.5 "/>
<text text-anchor="start" x="249.1173" y="-1077.9" font-family="Times,serif" font-size="14.00" fill="#000000">sum = 0;</text>
<text text-anchor="start" x="249.1173" y="-1061.1" font-family="Times,serif" font-size="14.00" fill="#000000">goto &lt;bb 4&gt;; [INV]</text>
<text text-anchor="middle" x="306" y="-1044.3" font-family="Times,serif" font-size="14.00" fill="#000000"></text>
</g>
<!-- fn_0_basic_block_0&#45;&gt;fn_0_basic_block_2 -->
<g id="edge1" class="edge">
<title>fn_0_basic_block_0:s-&gt;fn_0_basic_block_2:n</title>
<path fill="none" stroke="#0000ff" stroke-width="2" d="M306,-1172.6C306,-1160.4333 306,-1155.1104 306,-1146.3656"/>
<polygon fill="#0000ff" stroke="#0000ff" stroke-width="2" points="309.5001,-1146.1 306,-1136.1 302.5001,-1146.1 309.5001,-1146.1"/>
</g>
<!-- fn_0_basic_block_2&#45;&gt;fn_0_basic_block_4 -->
<g id="edge2" class="edge">
<title>fn_0_basic_block_2:s-&gt;fn_0_basic_block_4:n</title>
<path fill="none" stroke="#0000ff" stroke-width="2" d="M306,-1036.1C306,-1021.5111 306,-1015.5559 306,-1004.6093"/>
<polygon fill="#0000ff" stroke="#0000ff" stroke-width="2" points="309.5001,-1004.5 306,-994.5 302.5001,-1004.5 309.5001,-1004.5"/>
</g>
<!-- fn_0_basic_block_5&#45;&gt;fn_0_basic_block_10 -->
<g id="edge6" class="edge">
<title>fn_0_basic_block_5:s-&gt;fn_0_basic_block_10:n</title>
<path fill="none" stroke="#0000ff" stroke-width="2" d="M154,-723.7C154,-692.2843 207.4664,-711.7304 219.5798,-691.8381"/>
<polygon fill="#0000ff" stroke="#0000ff" stroke-width="2" points="222.9847,-692.649 222,-682.1 216.1914,-690.9606 222.9847,-692.649"/>
</g>
<!-- fn_0_basic_block_12 -->
<g id="node13" class="node">
<title>fn_0_basic_block_12</title>
<polygon fill="#d3d3d3" stroke="#000000" points="35.7882,-240.3 35.7882,-365.1 134.2118,-365.1 134.2118,-240.3 35.7882,-240.3"/>
<text text-anchor="start" x="43.7882" y="-348.5" font-family="Times,serif" font-size="14.00" fill="#000000">&lt;bb 12&gt;:</text>
<text text-anchor="middle" x="85" y="-331.7" font-family="Times,serif" font-size="14.00" fill="#000000"></text>
<polyline fill="none" stroke="#000000" points="35.7882,-323.5 134.2118,-323.5 "/>
<text text-anchor="start" x="43.7882" y="-306.9" font-family="Times,serif" font-size="14.00" fill="#000000">&lt;L9&gt;:</text>
<text text-anchor="middle" x="85" y="-290.1" font-family="Times,serif" font-size="14.00" fill="#000000"></text>
<polyline fill="none" stroke="#000000" points="35.7882,-281.9 134.2118,-281.9 "/>
<text text-anchor="start" x="43.7882" y="-265.3" font-family="Times,serif" font-size="14.00" fill="#000000">return D.1922;</text>
<text text-anchor="middle" x="85" y="-248.5" font-family="Times,serif" font-size="14.00" fill="#000000"></text>
</g>
<!-- fn_0_basic_block_11&#45;&gt;fn_0_basic_block_12 -->
<g id="edge14" class="edge">
<title>fn_0_basic_block_11:s-&gt;fn_0_basic_block_12:n</title>
<path fill="none" stroke="#0000ff" stroke-width="2" d="M85,-419.3C85,-398.825 85,-391.3068 85,-374.8808"/>
<polygon fill="#0000ff" stroke="#0000ff" stroke-width="2" points="88.5001,-374.7 85,-364.7 81.5001,-374.7 88.5001,-374.7"/>
</g>
<!-- fn_0_basic_block_12&#45;&gt;fn_0_basic_block_1 -->
<g id="edge15" class="edge">
<title>fn_0_basic_block_12:s-&gt;fn_0_basic_block_1:n</title>
<path fill="none" stroke="#000000" stroke-width="2" d="M85,-240.7C85,-196.674 85,-183.2168 85,-143.7283"/>
<polygon fill="#000000" stroke="#000000" stroke-width="2" points="88.5001,-143.7 85,-133.7 81.5001,-143.7 88.5001,-143.7"/>
</g>
</g>
</svg>