<?xml version="1.0" encoding="UTF-8" standalone="no"?><!DOCTYPE svg PUBLIC "-//W3C//DTD SVG 1.1//EN" "http://www.w3.org/Graphics/SVG/1.1/DTD/svg11.dtd"><!-- Generated by graphviz version 2.40.1 (20161225.0304)
 --><!-- Title: A&#45;5.c.012t.cfg Pages: 1 --><svg xmlns="http://www.w3.org/2000/svg" xmlns:xlink="http://www.w3.org/1999/xlink" width="275pt" height="887pt" viewBox="0.00 0.00 274.82 887.20">
<g id="graph0" class="graph" transform="scale(1 1) rotate(0) translate(4 883.2)">
<title>A-5.c.012t.cfg</title>
<polygon fill="#ffffff" stroke="transparent" points="-4,4 -4,-883.2 270.8226,-883.2 270.8226,4 -4,4"/>
<g id="clust1" class="cluster">
<title>cluster_main</title>
<polygon fill="none" stroke="#000000" stroke-dasharray="5,2" points="14.8226,-8 14.8226,-871.2 258.8226,-871.2 258.8226,-8 14.8226,-8"/>
<text text-anchor="middle" x="136.8226" y="-854.6" font-family="Times,serif" font-size="14.00" fill="#000000">main ()</text>
</g>
<!-- fn_0_basic_block_0 -->
<g id="node1" class="node">
<title>fn_0_basic_block_0</title>
<polygon fill="#ffffff" stroke="#000000" points="110.8226,-838.4 49.5826,-820.4 110.8226,-802.4 172.0626,-820.4 110.8226,-838.4"/>
<polyline fill="none" stroke="#000000" points="61.0956,-823.784 61.0956,-817.016 "/>
<polyline fill="none" stroke="#000000" points="99.3096,-805.784 122.3356,-805.784 "/>
<polyline fill="none" stroke="#000000" points="160.5496,-817.016 160.5496,-823.784 "/>
<polyline fill="none" stroke="#000000" points="122.3356,-835.016 99.3096,-835.016 "/>
<text text-anchor="middle" x="110.8226" y="-816.2" font-family="Times,serif" font-size="14.00" fill="#000000">ENTRY</text>
</g>
<!-- fn_0_basic_block_1 -->
<g id="node2" class="node">
<title>fn_0_basic_block_1</title>
<polygon fill="#ffffff" stroke="#000000" points="107.8226,-52 60.9228,-34 107.8226,-16 154.7224,-34 107.8226,-52"/>
<polyline fill="none" stroke="#000000" points="72.126,-38.2998 72.126,-29.7002 "/>
<polyline fill="none" stroke="#000000" points="96.6194,-20.2998 119.0258,-20.2998 "/>
<polyline fill="none" stroke="#000000" points="143.5192,-29.7002 143.5192,-38.2998 "/>
<polyline fill="none" stroke="#000000" points="119.0258,-47.7002 96.6194,-47.7002 "/>
<text text-anchor="middle" x="107.8226" y="-29.8" font-family="Times,serif" font-size="14.00" fill="#000000">EXIT</text>
</g>
<!-- fn_0_basic_block_0&#45;&gt;fn_0_basic_block_1 -->
<!-- fn_0_basic_block_2 -->
<g id="node3" class="node">
<title>fn_0_basic_block_2</title>
<polygon fill="#d3d3d3" stroke="#000000" points="42.4399,-590.7 42.4399,-765.9 179.2053,-765.9 179.2053,-590.7 42.4399,-590.7"/>
<text text-anchor="start" x="50.4399" y="-749.3" font-family="Times,serif" font-size="14.00" fill="#000000">&lt;bb 2&gt;:</text>
<text text-anchor="middle" x="110.8226" y="-732.5" font-family="Times,serif" font-size="14.00" fill="#000000"></text>
<polyline fill="none" stroke="#000000" points="42.4399,-724.3 179.2053,-724.3 "/>
<text text-anchor="start" x="50.4399" y="-707.7" font-family="Times,serif" font-size="14.00" fill="#000000">d = 10;</text>
<text text-anchor="middle" x="110.8226" y="-690.9" font-family="Times,serif" font-size="14.00" fill="#000000"></text>
<polyline fill="none" stroke="#000000" points="42.4399,-682.7 179.2053,-682.7 "/>
<text text-anchor="start" x="50.4399" y="-666.1" font-family="Times,serif" font-size="14.00" fill="#000000">if (c &gt; d)</text>
<text text-anchor="start" x="50.4399" y="-649.3" font-family="Times,serif" font-size="14.00" fill="#000000">  goto &lt;bb 3&gt;; [INV]</text>
<text text-anchor="start" x="50.4399" y="-632.5" font-family="Times,serif" font-size="14.00" fill="#000000">else</text>
<text text-anchor="start" x="50.4399" y="-615.7" font-family="Times,serif" font-size="14.00" fill="#000000">  goto &lt;bb 4&gt;; [INV]</text>
<text text-anchor="middle" x="110.8226" y="-598.9" font-family="Times,serif" font-size="14.00" fill="#000000"></text>
</g>
<!-- fn_0_basic_block_0&#45;&gt;fn_0_basic_block_2 -->
<g id="edge1" class="edge">
<title>fn_0_basic_block_0:s-&gt;fn_0_basic_block_2:n</title>
<path fill="none" stroke="#0000ff" stroke-width="2" d="M110.8226,-802.4C110.8226,-790.3667 110.8226,-785.1021 110.8226,-776.4531"/>
<polygon fill="#0000ff" stroke="#0000ff" stroke-width="2" points="114.3227,-776.3 110.8226,-766.3 107.3227,-776.3 114.3227,-776.3"/>
</g>
<!-- fn_0_basic_block_3 -->
<g id="node4" class="node">
<title>fn_0_basic_block_3</title>
<polygon fill="#d3d3d3" stroke="#000000" points="42.9399,-412.1 42.9399,-553.7 172.7053,-553.7 172.7053,-412.1 42.9399,-412.1"/>
<text text-anchor="start" x="50.9399" y="-537.1" font-family="Times,serif" font-size="14.00" fill="#000000">&lt;bb 3&gt;:</text>
<text text-anchor="middle" x="107.8226" y="-520.3" font-family="Times,serif" font-size="14.00" fill="#000000"></text>
<polyline fill="none" stroke="#000000" points="42.9399,-512.1 172.7053,-512.1 "/>
<text text-anchor="start" x="50.9399" y="-495.5" font-family="Times,serif" font-size="14.00" fill="#000000">a = 3;</text>
<text text-anchor="middle" x="107.8226" y="-478.7" font-family="Times,serif" font-size="14.00" fill="#000000"></text>
<polyline fill="none" stroke="#000000" points="42.9399,-470.5 172.7053,-470.5 "/>
<text text-anchor="start" x="50.9399" y="-453.9" font-family="Times,serif" font-size="14.00" fill="#000000">b = 2;</text>
<text text-anchor="start" x="50.9399" y="-437.1" font-family="Times,serif" font-size="14.00" fill="#000000">goto &lt;bb 5&gt;; [INV]</text>
<text text-anchor="middle" x="107.8226" y="-420.3" font-family="Times,serif" font-size="14.00" fill="#000000"></text>
</g>
<!-- fn_0_basic_block_2&#45;&gt;fn_0_basic_block_3 -->
<g id="edge2" class="edge">
<title>fn_0_basic_block_2:s-&gt;fn_0_basic_block_3:n</title>
<path fill="none" stroke="#000000" stroke-width="2" d="M110.8226,-590.3C110.8226,-578.1255 109.1351,-572.8686 108.2914,-564.1529"/>
<polygon fill="#000000" stroke="#000000" stroke-width="2" points="111.7758,-563.7297 107.8226,-553.9 104.7831,-564.0494 111.7758,-563.7297"/>
</g>
<!-- fn_0_basic_block_4 -->
<g id="node5" class="node">
<title>fn_0_basic_block_4</title>
<polygon fill="#d3d3d3" stroke="#000000" points="190.7327,-420.5 190.7327,-545.3 250.9125,-545.3 250.9125,-420.5 190.7327,-420.5"/>
<text text-anchor="start" x="198.7327" y="-528.7" font-family="Times,serif" font-size="14.00" fill="#000000">&lt;bb 4&gt;:</text>
<text text-anchor="middle" x="220.8226" y="-511.9" font-family="Times,serif" font-size="14.00" fill="#000000"></text>
<polyline fill="none" stroke="#000000" points="190.7327,-503.7 250.9125,-503.7 "/>
<text text-anchor="start" x="198.7327" y="-487.1" font-family="Times,serif" font-size="14.00" fill="#000000">a = 2;</text>
<text text-anchor="middle" x="220.8226" y="-470.3" font-family="Times,serif" font-size="14.00" fill="#000000"></text>
<polyline fill="none" stroke="#000000" points="190.7327,-462.1 250.9125,-462.1 "/>
<text text-anchor="start" x="198.7327" y="-445.5" font-family="Times,serif" font-size="14.00" fill="#000000">b = 3;</text>
<text text-anchor="middle" x="220.8226" y="-428.7" font-family="Times,serif" font-size="14.00" fill="#000000"></text>
</g>
<!-- fn_0_basic_block_2&#45;&gt;fn_0_basic_block_4 -->
<g id="edge3" class="edge">
<title>fn_0_basic_block_2:s-&gt;fn_0_basic_block_4:n</title>
<path fill="none" stroke="#000000" stroke-width="2" d="M110.8226,-590.3C110.8226,-541.3362 205.1004,-589.4507 219.0948,-554.8969"/>
<polygon fill="#000000" stroke="#000000" stroke-width="2" points="222.5683,-555.35 220.8226,-544.9 215.6706,-554.1578 222.5683,-555.35"/>
</g>
<!-- fn_0_basic_block_5 -->
<g id="node6" class="node">
<title>fn_0_basic_block_5</title>
<polygon fill="#d3d3d3" stroke="#000000" points="66.1267,-250.3 66.1267,-375.1 149.5185,-375.1 149.5185,-250.3 66.1267,-250.3"/>
<text text-anchor="start" x="74.1267" y="-358.5" font-family="Times,serif" font-size="14.00" fill="#000000">&lt;bb 5&gt;:</text>
<text text-anchor="middle" x="107.8226" y="-341.7" font-family="Times,serif" font-size="14.00" fill="#000000"></text>
<polyline fill="none" stroke="#000000" points="66.1267,-333.5 149.5185,-333.5 "/>
<text text-anchor="start" x="74.1267" y="-316.9" font-family="Times,serif" font-size="14.00" fill="#000000">c = a + b;</text>
<text text-anchor="middle" x="107.8226" y="-300.1" font-family="Times,serif" font-size="14.00" fill="#000000"></text>
<polyline fill="none" stroke="#000000" points="66.1267,-291.9 149.5185,-291.9 "/>
<text text-anchor="start" x="74.1267" y="-275.3" font-family="Times,serif" font-size="14.00" fill="#000000">D.1917 = 0;</text>
<text text-anchor="middle" x="107.8226" y="-258.5" font-family="Times,serif" font-size="14.00" fill="#000000"></text>
</g>
<!-- fn_0_basic_block_3&#45;&gt;fn_0_basic_block_5 -->
<g id="edge4" class="edge">
<title>fn_0_basic_block_3:s-&gt;fn_0_basic_block_5:n</title>
<path fill="none" stroke="#0000ff" stroke-width="2" d="M107.8226,-411.9C107.8226,-399.3708 107.8226,-393.9627 107.8226,-384.8828"/>
<polygon fill="#0000ff" stroke="#0000ff" stroke-width="2" points="111.3227,-384.7 107.8226,-374.7 104.3227,-384.7 111.3227,-384.7"/>
</g>
<!-- fn_0_basic_block_4&#45;&gt;fn_0_basic_block_5 -->
<g id="edge5" class="edge">
<title>fn_0_basic_block_4:s-&gt;fn_0_basic_block_5:n</title>
<path fill="none" stroke="#0000ff" stroke-width="2" d="M220.8226,-420.9C220.8226,-370.6693 123.9736,-420.3498 109.5976,-384.9497"/>
<polygon fill="#0000ff" stroke="#0000ff" stroke-width="2" points="112.9777,-383.9561 107.8226,-374.7 106.0803,-385.1506 112.9777,-383.9561"/>
</g>
<!-- fn_0_basic_block_6 -->
<g id="node7" class="node">
<title>fn_0_basic_block_6</title>
<polygon fill="#d3d3d3" stroke="#000000" points="58.6108,-88.5 58.6108,-213.3 157.0344,-213.3 157.0344,-88.5 58.6108,-88.5"/>
<text text-anchor="start" x="66.6108" y="-196.7" font-family="Times,serif" font-size="14.00" fill="#000000">&lt;bb 6&gt;:</text>
<text text-anchor="middle" x="107.8226" y="-179.9" font-family="Times,serif" font-size="14.00" fill="#000000"></text>
<polyline fill="none" stroke="#000000" points="58.6108,-171.7 157.0344,-171.7 "/>
<text text-anchor="start" x="66.6108" y="-155.1" font-family="Times,serif" font-size="14.00" fill="#000000">&lt;L3&gt;:</text>
<text text-anchor="middle" x="107.8226" y="-138.3" font-family="Times,serif" font-size="14.00" fill="#000000"></text>
<polyline fill="none" stroke="#000000" points="58.6108,-130.1 157.0344,-130.1 "/>
<text text-anchor="start" x="66.6108" y="-113.5" font-family="Times,serif" font-size="14.00" fill="#000000">return D.1917;</text>
<text text-anchor="middle" x="107.8226" y="-96.7" font-family="Times,serif" font-size="14.00" fill="#000000"></text>
</g>
<!-- fn_0_basic_block_5&#45;&gt;fn_0_basic_block_6 -->
<g id="edge6" class="edge">
<title>fn_0_basic_block_5:s-&gt;fn_0_basic_block_6:n</title>
<path fill="none" stroke="#0000ff" stroke-width="2" d="M107.8226,-250.7C107.8226,-237.8375 107.8226,-232.3609 107.8226,-222.9605"/>
<polygon fill="#0000ff" stroke="#0000ff" stroke-width="2" points="111.3227,-222.9 107.8226,-212.9 104.3227,-222.9 111.3227,-222.9"/>
</g>
<!-- fn_0_basic_block_6&#45;&gt;fn_0_basic_block_1 -->
<g id="edge7" class="edge">
<title>fn_0_basic_block_6:s-&gt;fn_0_basic_block_1:n</title>
<path fill="none" stroke="#000000" stroke-width="2" d="M107.8226,-88.9C107.8226,-76.4719 107.8226,-71.1074 107.8226,-62.1007"/>
<polygon fill="#000000" stroke="#000000" stroke-width="2" points="111.3227,-62 107.8226,-52 104.3227,-62 111.3227,-62"/>
</g>
</g>
</svg>