<?xml version="1.0" encoding="UTF-8" standalone="no"?><!DOCTYPE svg PUBLIC "-//W3C//DTD SVG 1.1//EN" "http://www.w3.org/Graphics/SVG/1.1/DTD/svg11.dtd"><!-- Generated by graphviz version 2.40.1 (20161225.0304)
 --><!-- Title: B&#45;4.c.012t.cfg Pages: 1 --><svg xmlns="http://www.w3.org/2000/svg" xmlns:xlink="http://www.w3.org/1999/xlink" width="198pt" height="621pt" viewBox="0.00 0.00 198.07 621.20">
<g id="graph0" class="graph" transform="scale(1 1) rotate(0) translate(4 617.2)">
<title>B-4.c.012t.cfg</title>
<polygon fill="#ffffff" stroke="transparent" points="-4,4 -4,-617.2 194.073,-617.2 194.073,4 -4,4"/>
<g id="clust1" class="cluster">
<title>cluster_main</title>
<polygon fill="none" stroke="#000000" stroke-dasharray="5,2" points="44.073,-8 44.073,-605.2 182.073,-605.2 182.073,-8 44.073,-8"/>
<text text-anchor="middle" x="113.073" y="-588.6" font-family="Times,serif" font-size="14.00" fill="#000000">main ()</text>
</g>
<!-- fn_0_basic_block_0 -->
<g id="node1" class="node">
<title>fn_0_basic_block_0</title>
<polygon fill="#ffffff" stroke="#000000" points="113.073,-572.4 51.833,-554.4 113.073,-536.4 174.313,-554.4 113.073,-572.4"/>
<polyline fill="none" stroke="#000000" points="63.346,-557.784 63.346,-551.016 "/>
<polyline fill="none" stroke="#000000" points="101.56,-539.784 124.586,-539.784 "/>
<polyline fill="none" stroke="#000000" points="162.8,-551.016 162.8,-557.784 "/>
<polyline fill="none" stroke="#000000" points="124.586,-569.016 101.56,-569.016 "/>
<text text-anchor="middle" x="113.073" y="-550.2" font-family="Times,serif" font-size="14.00" fill="#000000">ENTRY</text>
</g>
<!-- fn_0_basic_block_1 -->
<g id="node2" class="node">
<title>fn_0_basic_block_1</title>
<polygon fill="#ffffff" stroke="#000000" points="121.073,-52 74.1732,-34 121.073,-16 167.9728,-34 121.073,-52"/>
<polyline fill="none" stroke="#000000" points="85.3764,-38.2998 85.3764,-29.7002 "/>
<polyline fill="none" stroke="#000000" points="109.8698,-20.2998 132.2762,-20.2998 "/>
<polyline fill="none" stroke="#000000" points="156.7696,-29.7002 156.7696,-38.2998 "/>
<polyline fill="none" stroke="#000000" points="132.2762,-47.7002 109.8698,-47.7002 "/>
<text text-anchor="middle" x="121.073" y="-29.8" font-family="Times,serif" font-size="14.00" fill="#000000">EXIT</text>
</g>
<!-- fn_0_basic_block_0&#45;&gt;fn_0_basic_block_1 -->
<!-- fn_0_basic_block_2 -->
<g id="node3" class="node">
<title>fn_0_basic_block_2</title>
<polygon fill="#d3d3d3" stroke="#000000" points="74.7331,-250.3 74.7331,-499.9 159.4129,-499.9 159.4129,-250.3 74.7331,-250.3"/>
<text text-anchor="start" x="82.7331" y="-483.3" font-family="Times,serif" font-size="14.00" fill="#000000">&lt;bb 2&gt;:</text>
<text text-anchor="middle" x="117.073" y="-466.5" font-family="Times,serif" font-size="14.00" fill="#000000"></text>
<polyline fill="none" stroke="#000000" points="74.7331,-458.3 159.4129,-458.3 "/>
<text text-anchor="start" x="82.7331" y="-441.7" font-family="Times,serif" font-size="14.00" fill="#000000">_1 = a + c;</text>
<text text-anchor="middle" x="117.073" y="-424.9" font-family="Times,serif" font-size="14.00" fill="#000000"></text>
<polyline fill="none" stroke="#000000" points="74.7331,-416.7 159.4129,-416.7 "/>
<text text-anchor="start" x="82.7331" y="-400.1" font-family="Times,serif" font-size="14.00" fill="#000000">_2 = b + _1;</text>
<text text-anchor="middle" x="117.073" y="-383.3" font-family="Times,serif" font-size="14.00" fill="#000000"></text>
<polyline fill="none" stroke="#000000" points="74.7331,-375.1 159.4129,-375.1 "/>
<text text-anchor="start" x="82.7331" y="-358.5" font-family="Times,serif" font-size="14.00" fill="#000000">_3 = c + a;</text>
<text text-anchor="middle" x="117.073" y="-341.7" font-family="Times,serif" font-size="14.00" fill="#000000"></text>
<polyline fill="none" stroke="#000000" points="74.7331,-333.5 159.4129,-333.5 "/>
<text text-anchor="start" x="82.7331" y="-316.9" font-family="Times,serif" font-size="14.00" fill="#000000">b = _2 * _3;</text>
<text text-anchor="middle" x="117.073" y="-300.1" font-family="Times,serif" font-size="14.00" fill="#000000"></text>
<polyline fill="none" stroke="#000000" points="74.7331,-291.9 159.4129,-291.9 "/>
<text text-anchor="start" x="82.7331" y="-275.3" font-family="Times,serif" font-size="14.00" fill="#000000">D.1913 = b;</text>
<text text-anchor="middle" x="117.073" y="-258.5" font-family="Times,serif" font-size="14.00" fill="#000000"></text>
</g>
<!-- fn_0_basic_block_0&#45;&gt;fn_0_basic_block_2 -->
<g id="edge1" class="edge">
<title>fn_0_basic_block_0:s-&gt;fn_0_basic_block_2:n</title>
<path fill="none" stroke="#0000ff" stroke-width="2" d="M113.073,-536.4C113.073,-524.2268 115.323,-519.0246 116.448,-510.3368"/>
<polygon fill="#0000ff" stroke="#0000ff" stroke-width="2" points="119.957,-510.2947 117.073,-500.1 112.97,-509.8681 119.957,-510.2947"/>
</g>
<!-- fn_0_basic_block_3 -->
<g id="node4" class="node">
<title>fn_0_basic_block_3</title>
<polygon fill="#d3d3d3" stroke="#000000" points="71.8612,-88.5 71.8612,-213.3 170.2848,-213.3 170.2848,-88.5 71.8612,-88.5"/>
<text text-anchor="start" x="79.8612" y="-196.7" font-family="Times,serif" font-size="14.00" fill="#000000">&lt;bb 3&gt;:</text>
<text text-anchor="middle" x="121.073" y="-179.9" font-family="Times,serif" font-size="14.00" fill="#000000"></text>
<polyline fill="none" stroke="#000000" points="71.8612,-171.7 170.2848,-171.7 "/>
<text text-anchor="start" x="79.8612" y="-155.1" font-family="Times,serif" font-size="14.00" fill="#000000">&lt;L0&gt;:</text>
<text text-anchor="middle" x="121.073" y="-138.3" font-family="Times,serif" font-size="14.00" fill="#000000"></text>
<polyline fill="none" stroke="#000000" points="71.8612,-130.1 170.2848,-130.1 "/>
<text text-anchor="start" x="79.8612" y="-113.5" font-family="Times,serif" font-size="14.00" fill="#000000">return D.1913;</text>
<text text-anchor="middle" x="121.073" y="-96.7" font-family="Times,serif" font-size="14.00" fill="#000000"></text>
</g>
<!-- fn_0_basic_block_2&#45;&gt;fn_0_basic_block_3 -->
<g id="edge2" class="edge">
<title>fn_0_basic_block_2:s-&gt;fn_0_basic_block_3:n</title>
<path fill="none" stroke="#0000ff" stroke-width="2" d="M117.073,-250.1C117.073,-237.4986 119.3701,-232.1825 120.4828,-223.1099"/>
<polygon fill="#0000ff" stroke="#0000ff" stroke-width="2" points="123.99,-223.0854 121.073,-212.9 117.0016,-222.6813 123.99,-223.0854"/>
</g>
<!-- fn_0_basic_block_3&#45;&gt;fn_0_basic_block_1 -->
<g id="edge3" class="edge">
<title>fn_0_basic_block_3:s-&gt;fn_0_basic_block_1:n</title>
<path fill="none" stroke="#000000" stroke-width="2" d="M121.073,-88.9C121.073,-76.4719 121.073,-71.1074 121.073,-62.1007"/>
<polygon fill="#000000" stroke="#000000" stroke-width="2" points="124.5731,-62 121.073,-52 117.5731,-62 124.5731,-62"/>
</g>
</g>
</svg>