<?xml version="1.0" encoding="UTF-8" standalone="no"?><!DOCTYPE svg PUBLIC "-//W3C//DTD SVG 1.1//EN" "http://www.w3.org/Graphics/SVG/1.1/DTD/svg11.dtd"><!-- Generated by graphviz version 2.40.1 (20161225.0304)
 --><!-- Title: B&#45;3.c.012t.cfg Pages: 1 --><svg xmlns="http://www.w3.org/2000/svg" xmlns:xlink="http://www.w3.org/1999/xlink" width="462pt" height="874pt" viewBox="0.00 0.00 462.00 873.80">
<g id="graph0" class="graph" transform="scale(1 1) rotate(0) translate(4 869.8)">
<title>B-3.c.012t.cfg</title>
<polygon fill="#ffffff" stroke="transparent" points="-4,4 -4,-869.8 458,-869.8 458,4 -4,4"/>
<g id="clust1" class="cluster">
<title>cluster_main</title>
<polygon fill="none" stroke="#000000" stroke-dasharray="5,2" points="8,-8 8,-857.8 446,-857.8 446,-8 8,-8"/>
<text text-anchor="middle" x="227" y="-841.2" font-family="Times,serif" font-size="14.00" fill="#000000">main ()</text>
</g>
<g id="clust2" class="cluster">
<title>cluster_12_1</title>
<polygon fill="#e0e0e0" stroke="#006400" stroke-width="2" points="184,-16 184,-644 438,-644 438,-16 184,-16"/>
<text text-anchor="middle" x="209.6953" y="-627.4" font-family="Times,serif" font-size="14.00" fill="#000000">loop 1</text>
</g>
<!-- fn_12_basic_block_7 -->
<g id="node1" class="node">
<title>fn_12_basic_block_7</title>
<polygon fill="#d3d3d3" stroke="#000000" points="191.6173,-477.1 191.6173,-610.7 328.3827,-610.7 328.3827,-477.1 191.6173,-477.1"/>
<text text-anchor="start" x="199.6173" y="-594.1" font-family="Times,serif" font-size="14.00" fill="#000000">&lt;bb 7&gt;:</text>
<text text-anchor="middle" x="260" y="-577.3" font-family="Times,serif" font-size="14.00" fill="#000000"></text>
<polyline fill="none" stroke="#000000" points="191.6173,-569.1 328.3827,-569.1 "/>
<text text-anchor="start" x="199.6173" y="-552.5" font-family="Times,serif" font-size="14.00" fill="#000000">if (a &lt;= 99)</text>
<text text-anchor="start" x="199.6173" y="-535.7" font-family="Times,serif" font-size="14.00" fill="#000000">  goto &lt;bb 3&gt;; [INV]</text>
<text text-anchor="start" x="199.6173" y="-518.9" font-family="Times,serif" font-size="14.00" fill="#000000">else</text>
<text text-anchor="start" x="199.6173" y="-502.1" font-family="Times,serif" font-size="14.00" fill="#000000">  goto &lt;bb 8&gt;; [INV]</text>
<text text-anchor="middle" x="260" y="-485.3" font-family="Times,serif" font-size="14.00" fill="#000000"></text>
</g>
<!-- fn_12_basic_block_3 -->
<g id="node2" class="node">
<title>fn_12_basic_block_3</title>
<polygon fill="#d3d3d3" stroke="#000000" points="193.6173,-306.5 193.6173,-440.1 330.3827,-440.1 330.3827,-306.5 193.6173,-306.5"/>
<text text-anchor="start" x="201.6173" y="-423.5" font-family="Times,serif" font-size="14.00" fill="#000000">&lt;bb 3&gt;:</text>
<text text-anchor="middle" x="262" y="-406.7" font-family="Times,serif" font-size="14.00" fill="#000000"></text>
<polyline fill="none" stroke="#000000" points="193.6173,-398.5 330.3827,-398.5 "/>
<text text-anchor="start" x="201.6173" y="-381.9" font-family="Times,serif" font-size="14.00" fill="#000000">if (a &lt;= 3)</text>
<text text-anchor="start" x="201.6173" y="-365.1" font-family="Times,serif" font-size="14.00" fill="#000000">  goto &lt;bb 4&gt;; [INV]</text>
<text text-anchor="start" x="201.6173" y="-348.3" font-family="Times,serif" font-size="14.00" fill="#000000">else</text>
<text text-anchor="start" x="201.6173" y="-331.5" font-family="Times,serif" font-size="14.00" fill="#000000">  goto &lt;bb 5&gt;; [INV]</text>
<text text-anchor="middle" x="262" y="-314.7" font-family="Times,serif" font-size="14.00" fill="#000000"></text>
</g>
<!-- fn_12_basic_block_7&#45;&gt;fn_12_basic_block_3 -->
<g id="edge8" class="edge">
<title>fn_12_basic_block_7:s-&gt;fn_12_basic_block_3:n</title>
<path fill="none" stroke="#000000" stroke-width="2" d="M260,-476.9C260,-464.5545 261.1486,-459.2571 261.7049,-450.3255"/>
<polygon fill="#000000" stroke="#000000" stroke-width="2" points="265.2042,-450.3987 262,-440.3 258.2072,-450.1927 265.2042,-450.3987"/>
</g>
<!-- fn_12_basic_block_8 -->
<g id="node9" class="node">
<title>fn_12_basic_block_8</title>
<polygon fill="#d3d3d3" stroke="#000000" points="36.1144,-310.9 36.1144,-435.7 175.8856,-435.7 175.8856,-310.9 36.1144,-310.9"/>
<text text-anchor="start" x="44.1144" y="-419.1" font-family="Times,serif" font-size="14.00" fill="#000000">&lt;bb 8&gt;:</text>
<text text-anchor="middle" x="106" y="-402.3" font-family="Times,serif" font-size="14.00" fill="#000000"></text>
<polyline fill="none" stroke="#000000" points="36.1144,-394.1 175.8856,-394.1 "/>
<text text-anchor="start" x="44.1144" y="-377.5" font-family="Times,serif" font-size="14.00" fill="#000000">printf ("%d%d", a, b);</text>
<text text-anchor="middle" x="106" y="-360.7" font-family="Times,serif" font-size="14.00" fill="#000000"></text>
<polyline fill="none" stroke="#000000" points="36.1144,-352.5 175.8856,-352.5 "/>
<text text-anchor="start" x="44.1144" y="-335.9" font-family="Times,serif" font-size="14.00" fill="#000000">D.3100 = 0;</text>
<text text-anchor="middle" x="106" y="-319.1" font-family="Times,serif" font-size="14.00" fill="#000000"></text>
</g>
<!-- fn_12_basic_block_7&#45;&gt;fn_12_basic_block_8 -->
<g id="edge9" class="edge">
<title>fn_12_basic_block_7:s-&gt;fn_12_basic_block_8:n</title>
<path fill="none" stroke="#000000" stroke-width="2" d="M260,-476.9C260,-409.8795 122.3832,-495.7505 107.3313,-445.4525"/>
<polygon fill="#000000" stroke="#000000" stroke-width="2" points="110.7706,-444.76 106,-435.3 103.83,-445.6702 110.7706,-444.76"/>
</g>
<!-- fn_12_basic_block_4 -->
<g id="node3" class="node">
<title>fn_12_basic_block_4</title>
<polygon fill="#d3d3d3" stroke="#000000" points="192.1173,-157.1 192.1173,-257.1 321.8827,-257.1 321.8827,-157.1 192.1173,-157.1"/>
<text text-anchor="start" x="200.1173" y="-240.5" font-family="Times,serif" font-size="14.00" fill="#000000">&lt;bb 4&gt;:</text>
<text text-anchor="middle" x="257" y="-223.7" font-family="Times,serif" font-size="14.00" fill="#000000"></text>
<polyline fill="none" stroke="#000000" points="192.1173,-215.5 321.8827,-215.5 "/>
<text text-anchor="start" x="200.1173" y="-198.9" font-family="Times,serif" font-size="14.00" fill="#000000">b = b + 2;</text>
<text text-anchor="start" x="200.1173" y="-182.1" font-family="Times,serif" font-size="14.00" fill="#000000">goto &lt;bb 6&gt;; [INV]</text>
<text text-anchor="middle" x="257" y="-165.3" font-family="Times,serif" font-size="14.00" fill="#000000"></text>
</g>
<!-- fn_12_basic_block_3&#45;&gt;fn_12_basic_block_4 -->
<g id="edge3" class="edge">
<title>fn_12_basic_block_3:s-&gt;fn_12_basic_block_4:n</title>
<path fill="none" stroke="#000000" stroke-width="2" d="M262,-306.3C262,-288.0984 258.571,-281.3755 257.3923,-267.1197"/>
<polygon fill="#000000" stroke="#000000" stroke-width="2" points="260.8887,-266.9554 257,-257.1 253.894,-267.2293 260.8887,-266.9554"/>
</g>
<!-- fn_12_basic_block_5 -->
<g id="node4" class="node">
<title>fn_12_basic_block_5</title>
<polygon fill="#d3d3d3" stroke="#000000" points="340.1074,-165.5 340.1074,-248.7 409.8926,-248.7 409.8926,-165.5 340.1074,-165.5"/>
<text text-anchor="start" x="348.1074" y="-232.1" font-family="Times,serif" font-size="14.00" fill="#000000">&lt;bb 5&gt;:</text>
<text text-anchor="middle" x="375" y="-215.3" font-family="Times,serif" font-size="14.00" fill="#000000"></text>
<polyline fill="none" stroke="#000000" points="340.1074,-207.1 409.8926,-207.1 "/>
<text text-anchor="start" x="348.1074" y="-190.5" font-family="Times,serif" font-size="14.00" fill="#000000">b = b * 2;</text>
<text text-anchor="middle" x="375" y="-173.7" font-family="Times,serif" font-size="14.00" fill="#000000"></text>
</g>
<!-- fn_12_basic_block_3&#45;&gt;fn_12_basic_block_5 -->
<g id="edge4" class="edge">
<title>fn_12_basic_block_3:s-&gt;fn_12_basic_block_5:n</title>
<path fill="none" stroke="#000000" stroke-width="2" d="M262,-306.3C262,-253.9679 359.668,-298.1542 373.4026,-259.3951"/>
<polygon fill="#000000" stroke="#000000" stroke-width="2" points="376.9253,-259.5184 375,-249.1 370.008,-258.4451 376.9253,-259.5184"/>
</g>
<!-- fn_12_basic_block_6 -->
<g id="node5" class="node">
<title>fn_12_basic_block_6</title>
<polygon fill="#d3d3d3" stroke="#000000" points="281.4455,-24.5 281.4455,-107.7 350.5545,-107.7 350.5545,-24.5 281.4455,-24.5"/>
<text text-anchor="start" x="289.4455" y="-91.1" font-family="Times,serif" font-size="14.00" fill="#000000">&lt;bb 6&gt;:</text>
<text text-anchor="middle" x="316" y="-74.3" font-family="Times,serif" font-size="14.00" fill="#000000"></text>
<polyline fill="none" stroke="#000000" points="281.4455,-66.1 350.5545,-66.1 "/>
<text text-anchor="start" x="289.4455" y="-49.5" font-family="Times,serif" font-size="14.00" fill="#000000">a = a + 1;</text>
<text text-anchor="middle" x="316" y="-32.7" font-family="Times,serif" font-size="14.00" fill="#000000"></text>
</g>
<!-- fn_12_basic_block_4&#45;&gt;fn_12_basic_block_6 -->
<g id="edge5" class="edge">
<title>fn_12_basic_block_4:s-&gt;fn_12_basic_block_6:n</title>
<path fill="none" stroke="#0000ff" stroke-width="2" d="M257,-157.1C257,-127.0082 302.9821,-138.4241 313.7592,-118.0607"/>
<polygon fill="#0000ff" stroke="#0000ff" stroke-width="2" points="317.2198,-118.6244 316,-108.1 310.3905,-117.088 317.2198,-118.6244"/>
</g>
<!-- fn_12_basic_block_5&#45;&gt;fn_12_basic_block_6 -->
<g id="edge6" class="edge">
<title>fn_12_basic_block_5:s-&gt;fn_12_basic_block_6:n</title>
<path fill="none" stroke="#0000ff" stroke-width="2" d="M375,-165.1C375,-132.4848 327.789,-141.785 317.8304,-118.0113"/>
<polygon fill="#0000ff" stroke="#0000ff" stroke-width="2" points="321.258,-117.298 316,-108.1 314.3744,-118.5694 321.258,-117.298"/>
</g>
<!-- fn_12_basic_block_6&#45;&gt;fn_12_basic_block_7 -->
<g id="edge7" class="edge">
<title>fn_12_basic_block_6:s-&gt;fn_12_basic_block_7:n</title>
<path fill="none" stroke="#0000ff" stroke-width="2" stroke-dasharray="1,5" d="M316,-24.1C316,-8.7424 337.276,-16.384 350.5545,-24.1 403.6748,-54.9677 403.2651,-84.8115 419,-144.2 433.3195,-198.2463 426.2427,-214.56 419,-270 398.6917,-425.4516 452.6637,-515.3392 328.3827,-610.9 318.9712,-618.1366 282.5277,-623.341 267.034,-618.0256"/>
<polygon fill="#0000ff" stroke="#0000ff" stroke-width="2" points="269.5161,-615.5578 260,-610.9 264.5344,-620.4755 269.5161,-615.5578"/>
</g>
<!-- fn_12_basic_block_0 -->
<g id="node6" class="node">
<title>fn_12_basic_block_0</title>
<polygon fill="#ffffff" stroke="#000000" points="260,-825 198.76,-807 260,-789 321.24,-807 260,-825"/>
<polyline fill="none" stroke="#000000" points="210.273,-810.384 210.273,-803.616 "/>
<polyline fill="none" stroke="#000000" points="248.487,-792.384 271.513,-792.384 "/>
<polyline fill="none" stroke="#000000" points="309.727,-803.616 309.727,-810.384 "/>
<polyline fill="none" stroke="#000000" points="271.513,-821.616 248.487,-821.616 "/>
<text text-anchor="middle" x="260" y="-802.8" font-family="Times,serif" font-size="14.00" fill="#000000">ENTRY</text>
</g>
<!-- fn_12_basic_block_1 -->
<g id="node7" class="node">
<title>fn_12_basic_block_1</title>
<polygon fill="#ffffff" stroke="#000000" points="106,-84.1 59.1002,-66.1 106,-48.1 152.8998,-66.1 106,-84.1"/>
<polyline fill="none" stroke="#000000" points="70.3034,-70.3998 70.3034,-61.8002 "/>
<polyline fill="none" stroke="#000000" points="94.7968,-52.3998 117.2032,-52.3998 "/>
<polyline fill="none" stroke="#000000" points="141.6966,-61.8002 141.6966,-70.3998 "/>
<polyline fill="none" stroke="#000000" points="117.2032,-79.8002 94.7968,-79.8002 "/>
<text text-anchor="middle" x="106" y="-61.9" font-family="Times,serif" font-size="14.00" fill="#000000">EXIT</text>
</g>
<!-- fn_12_basic_block_0&#45;&gt;fn_12_basic_block_1 -->
<!-- fn_12_basic_block_2 -->
<g id="node8" class="node">
<title>fn_12_basic_block_2</title>
<polygon fill="#d3d3d3" stroke="#000000" points="195.1173,-652.5 195.1173,-752.5 324.8827,-752.5 324.8827,-652.5 195.1173,-652.5"/>
<text text-anchor="start" x="203.1173" y="-735.9" font-family="Times,serif" font-size="14.00" fill="#000000">&lt;bb 2&gt;:</text>
<text text-anchor="middle" x="260" y="-719.1" font-family="Times,serif" font-size="14.00" fill="#000000"></text>
<polyline fill="none" stroke="#000000" points="195.1173,-710.9 324.8827,-710.9 "/>
<text text-anchor="start" x="203.1173" y="-694.3" font-family="Times,serif" font-size="14.00" fill="#000000">a = 4;</text>
<text text-anchor="start" x="203.1173" y="-677.5" font-family="Times,serif" font-size="14.00" fill="#000000">goto &lt;bb 7&gt;; [INV]</text>
<text text-anchor="middle" x="260" y="-660.7" font-family="Times,serif" font-size="14.00" fill="#000000"></text>
</g>
<!-- fn_12_basic_block_0&#45;&gt;fn_12_basic_block_2 -->
<g id="edge1" class="edge">
<title>fn_12_basic_block_0:s-&gt;fn_12_basic_block_2:n</title>
<path fill="none" stroke="#0000ff" stroke-width="2" d="M260,-789C260,-776.8333 260,-771.5104 260,-762.7656"/>
<polygon fill="#0000ff" stroke="#0000ff" stroke-width="2" points="263.5001,-762.5 260,-752.5 256.5001,-762.5 263.5001,-762.5"/>
</g>
<!-- fn_12_basic_block_2&#45;&gt;fn_12_basic_block_7 -->
<g id="edge2" class="edge">
<title>fn_12_basic_block_2:s-&gt;fn_12_basic_block_7:n</title>
<path fill="none" stroke="#0000ff" stroke-width="2" d="M260,-652.5C260,-637.9111 260,-631.9559 260,-621.0093"/>
<polygon fill="#0000ff" stroke="#0000ff" stroke-width="2" points="263.5001,-620.9 260,-610.9 256.5001,-620.9 263.5001,-620.9"/>
</g>
<!-- fn_12_basic_block_9 -->
<g id="node10" class="node">
<title>fn_12_basic_block_9</title>
<polygon fill="#d3d3d3" stroke="#000000" points="56.7882,-144.7 56.7882,-269.5 155.2118,-269.5 155.2118,-144.7 56.7882,-144.7"/>
<text text-anchor="start" x="64.7882" y="-252.9" font-family="Times,serif" font-size="14.00" fill="#000000">&lt;bb 9&gt;:</text>
<text text-anchor="middle" x="106" y="-236.1" font-family="Times,serif" font-size="14.00" fill="#000000"></text>
<polyline fill="none" stroke="#000000" points="56.7882,-227.9 155.2118,-227.9 "/>
<text text-anchor="start" x="64.7882" y="-211.3" font-family="Times,serif" font-size="14.00" fill="#000000">&lt;L6&gt;:</text>
<text text-anchor="middle" x="106" y="-194.5" font-family="Times,serif" font-size="14.00" fill="#000000"></text>
<polyline fill="none" stroke="#000000" points="56.7882,-186.3 155.2118,-186.3 "/>
<text text-anchor="start" x="64.7882" y="-169.7" font-family="Times,serif" font-size="14.00" fill="#000000">return D.3100;</text>
<text text-anchor="middle" x="106" y="-152.9" font-family="Times,serif" font-size="14.00" fill="#000000"></text>
</g>
<!-- fn_12_basic_block_8&#45;&gt;fn_12_basic_block_9 -->
<g id="edge10" class="edge">
<title>fn_12_basic_block_8:s-&gt;fn_12_basic_block_9:n</title>
<path fill="none" stroke="#0000ff" stroke-width="2" d="M106,-311.3C106,-296.5007 106,-290.4596 106,-279.3551"/>
<polygon fill="#0000ff" stroke="#0000ff" stroke-width="2" points="109.5001,-279.1 106,-269.1 102.5001,-279.1 109.5001,-279.1"/>
</g>
<!-- fn_12_basic_block_9&#45;&gt;fn_12_basic_block_1 -->
<g id="edge11" class="edge">
<title>fn_12_basic_block_9:s-&gt;fn_12_basic_block_1:n</title>
<path fill="none" stroke="#000000" stroke-width="2" d="M106,-145.1C106,-121.6955 106,-113.4445 106,-94.1835"/>
<polygon fill="#000000" stroke="#000000" stroke-width="2" points="109.5001,-94.1 106,-84.1 102.5001,-94.1 109.5001,-94.1"/>
</g>
</g>
</svg>