<?xml version="1.0" encoding="UTF-8" standalone="no"?><!DOCTYPE svg PUBLIC "-//W3C//DTD SVG 1.1//EN" "http://www.w3.org/Graphics/SVG/1.1/DTD/svg11.dtd"><!-- Generated by graphviz version 2.40.1 (20161225.0304)
 --><!-- Title: B&#45;1.c.012t.cfg Pages: 1 --><svg xmlns="http://www.w3.org/2000/svg" xmlns:xlink="http://www.w3.org/1999/xlink" width="341pt" height="538pt" viewBox="0.00 0.00 340.62 538.00">
<g id="graph0" class="graph" transform="scale(1 1) rotate(0) translate(4 534)">
<title>B-1.c.012t.cfg</title>
<polygon fill="#ffffff" stroke="transparent" points="-4,4 -4,-534 336.6211,-534 336.6211,4 -4,4"/>
<g id="clust1" class="cluster">
<title>cluster_AddTwo</title>
<polygon fill="none" stroke="#000000" stroke-dasharray="5,2" points="30.6211,-8 30.6211,-522 168.6211,-522 168.6211,-8 30.6211,-8"/>
<text text-anchor="middle" x="99.6211" y="-505.4" font-family="Times,serif" font-size="14.00" fill="#000000">AddTwo ()</text>
</g>
<g id="clust2" class="cluster">
<title>cluster_main</title>
<polygon fill="none" stroke="#000000" stroke-dasharray="5,2" points="176.6211,-8 176.6211,-522 324.6211,-522 324.6211,-8 176.6211,-8"/>
<text text-anchor="middle" x="250.6211" y="-505.4" font-family="Times,serif" font-size="14.00" fill="#000000">main ()</text>
</g>
<!-- fn_0_basic_block_0 -->
<g id="node1" class="node">
<title>fn_0_basic_block_0</title>
<polygon fill="#ffffff" stroke="#000000" points="99.6211,-489.2 38.3811,-471.2 99.6211,-453.2 160.8611,-471.2 99.6211,-489.2"/>
<polyline fill="none" stroke="#000000" points="49.8941,-474.584 49.8941,-467.816 "/>
<polyline fill="none" stroke="#000000" points="88.1081,-456.584 111.1341,-456.584 "/>
<polyline fill="none" stroke="#000000" points="149.3481,-467.816 149.3481,-474.584 "/>
<polyline fill="none" stroke="#000000" points="111.1341,-485.816 88.1081,-485.816 "/>
<text text-anchor="middle" x="99.6211" y="-467" font-family="Times,serif" font-size="14.00" fill="#000000">ENTRY</text>
</g>
<!-- fn_0_basic_block_1 -->
<g id="node2" class="node">
<title>fn_0_basic_block_1</title>
<polygon fill="#ffffff" stroke="#000000" points="107.6211,-52 60.7213,-34 107.6211,-16 154.5209,-34 107.6211,-52"/>
<polyline fill="none" stroke="#000000" points="71.9245,-38.2998 71.9245,-29.7002 "/>
<polyline fill="none" stroke="#000000" points="96.4179,-20.2998 118.8243,-20.2998 "/>
<polyline fill="none" stroke="#000000" points="143.3177,-29.7002 143.3177,-38.2998 "/>
<polyline fill="none" stroke="#000000" points="118.8243,-47.7002 96.4179,-47.7002 "/>
<text text-anchor="middle" x="107.6211" y="-29.8" font-family="Times,serif" font-size="14.00" fill="#000000">EXIT</text>
</g>
<!-- fn_0_basic_block_0&#45;&gt;fn_0_basic_block_1 -->
<!-- fn_0_basic_block_2 -->
<g id="node3" class="node">
<title>fn_0_basic_block_2</title>
<polygon fill="#d3d3d3" stroke="#000000" points="62.3179,-271.1 62.3179,-395.9 144.9243,-395.9 144.9243,-271.1 62.3179,-271.1"/>
<text text-anchor="start" x="70.3179" y="-379.3" font-family="Times,serif" font-size="14.00" fill="#000000">&lt;bb 2&gt;:</text>
<text text-anchor="middle" x="103.6211" y="-362.5" font-family="Times,serif" font-size="14.00" fill="#000000"></text>
<polyline fill="none" stroke="#000000" points="62.3179,-354.3 144.9243,-354.3 "/>
<text text-anchor="start" x="70.3179" y="-337.7" font-family="Times,serif" font-size="14.00" fill="#000000">a = a + 2;</text>
<text text-anchor="middle" x="103.6211" y="-320.9" font-family="Times,serif" font-size="14.00" fill="#000000"></text>
<polyline fill="none" stroke="#000000" points="62.3179,-312.7 144.9243,-312.7 "/>
<text text-anchor="start" x="70.3179" y="-296.1" font-family="Times,serif" font-size="14.00" fill="#000000">D.1914 = a;</text>
<text text-anchor="middle" x="103.6211" y="-279.3" font-family="Times,serif" font-size="14.00" fill="#000000"></text>
</g>
<!-- fn_0_basic_block_0&#45;&gt;fn_0_basic_block_2 -->
<g id="edge1" class="edge">
<title>fn_0_basic_block_0:s-&gt;fn_0_basic_block_2:n</title>
<path fill="none" stroke="#0000ff" stroke-width="2" d="M99.6211,-453.2C99.6211,-431.3097 102.5217,-423.5006 103.3829,-405.7907"/>
<polygon fill="#0000ff" stroke="#0000ff" stroke-width="2" points="106.8886,-405.5784 103.6211,-395.5 99.8905,-405.4163 106.8886,-405.5784"/>
</g>
<!-- fn_0_basic_block_3 -->
<g id="node4" class="node">
<title>fn_0_basic_block_3</title>
<polygon fill="#d3d3d3" stroke="#000000" points="58.4093,-88.5 58.4093,-213.3 156.8329,-213.3 156.8329,-88.5 58.4093,-88.5"/>
<text text-anchor="start" x="66.4093" y="-196.7" font-family="Times,serif" font-size="14.00" fill="#000000">&lt;bb 3&gt;:</text>
<text text-anchor="middle" x="107.6211" y="-179.9" font-family="Times,serif" font-size="14.00" fill="#000000"></text>
<polyline fill="none" stroke="#000000" points="58.4093,-171.7 156.8329,-171.7 "/>
<text text-anchor="start" x="66.4093" y="-155.1" font-family="Times,serif" font-size="14.00" fill="#000000">&lt;L0&gt;:</text>
<text text-anchor="middle" x="107.6211" y="-138.3" font-family="Times,serif" font-size="14.00" fill="#000000"></text>
<polyline fill="none" stroke="#000000" points="58.4093,-130.1 156.8329,-130.1 "/>
<text text-anchor="start" x="66.4093" y="-113.5" font-family="Times,serif" font-size="14.00" fill="#000000">return D.1914;</text>
<text text-anchor="middle" x="107.6211" y="-96.7" font-family="Times,serif" font-size="14.00" fill="#000000"></text>
</g>
<!-- fn_0_basic_block_2&#45;&gt;fn_0_basic_block_3 -->
<g id="edge2" class="edge">
<title>fn_0_basic_block_2:s-&gt;fn_0_basic_block_3:n</title>
<path fill="none" stroke="#0000ff" stroke-width="2" d="M103.6211,-271.5C103.6211,-249.2699 106.5217,-241.3364 107.3829,-223.3507"/>
<polygon fill="#0000ff" stroke="#0000ff" stroke-width="2" points="110.8922,-222.9772 107.6211,-212.9 103.894,-222.8176 110.8922,-222.9772"/>
</g>
<!-- fn_0_basic_block_3&#45;&gt;fn_0_basic_block_1 -->
<g id="edge3" class="edge">
<title>fn_0_basic_block_3:s-&gt;fn_0_basic_block_1:n</title>
<path fill="none" stroke="#000000" stroke-width="2" d="M107.6211,-88.9C107.6211,-76.4719 107.6211,-71.1074 107.6211,-62.1007"/>
<polygon fill="#000000" stroke="#000000" stroke-width="2" points="111.1212,-62 107.6211,-52 104.1212,-62 111.1212,-62"/>
</g>
<!-- fn_1_basic_block_0 -->
<g id="node5" class="node">
<title>fn_1_basic_block_0</title>
<polygon fill="#ffffff" stroke="#000000" points="255.6211,-489.2 194.3811,-471.2 255.6211,-453.2 316.8611,-471.2 255.6211,-489.2"/>
<polyline fill="none" stroke="#000000" points="205.8941,-474.584 205.8941,-467.816 "/>
<polyline fill="none" stroke="#000000" points="244.1081,-456.584 267.1341,-456.584 "/>
<polyline fill="none" stroke="#000000" points="305.3481,-467.816 305.3481,-474.584 "/>
<polyline fill="none" stroke="#000000" points="267.1341,-485.816 244.1081,-485.816 "/>
<text text-anchor="middle" x="255.6211" y="-467" font-family="Times,serif" font-size="14.00" fill="#000000">ENTRY</text>
</g>
<!-- fn_1_basic_block_1 -->
<g id="node6" class="node">
<title>fn_1_basic_block_1</title>
<polygon fill="#ffffff" stroke="#000000" points="260.6211,-52 213.7213,-34 260.6211,-16 307.5209,-34 260.6211,-52"/>
<polyline fill="none" stroke="#000000" points="224.9245,-38.2998 224.9245,-29.7002 "/>
<polyline fill="none" stroke="#000000" points="249.4179,-20.2998 271.8243,-20.2998 "/>
<polyline fill="none" stroke="#000000" points="296.3177,-29.7002 296.3177,-38.2998 "/>
<polyline fill="none" stroke="#000000" points="271.8243,-47.7002 249.4179,-47.7002 "/>
<text text-anchor="middle" x="260.6211" y="-29.8" font-family="Times,serif" font-size="14.00" fill="#000000">EXIT</text>
</g>
<!-- fn_1_basic_block_0&#45;&gt;fn_1_basic_block_1 -->
<!-- fn_1_basic_block_2 -->
<g id="node7" class="node">
<title>fn_1_basic_block_2</title>
<polygon fill="#d3d3d3" stroke="#000000" points="204.935,-250.3 204.935,-416.7 316.3072,-416.7 316.3072,-250.3 204.935,-250.3"/>
<text text-anchor="start" x="212.935" y="-400.1" font-family="Times,serif" font-size="14.00" fill="#000000">&lt;bb 2&gt;:</text>
<text text-anchor="middle" x="260.6211" y="-383.3" font-family="Times,serif" font-size="14.00" fill="#000000"></text>
<polyline fill="none" stroke="#000000" points="204.935,-375.1 316.3072,-375.1 "/>
<text text-anchor="start" x="212.935" y="-358.5" font-family="Times,serif" font-size="14.00" fill="#000000">x = 3;</text>
<text text-anchor="middle" x="260.6211" y="-341.7" font-family="Times,serif" font-size="14.00" fill="#000000"></text>
<polyline fill="none" stroke="#000000" points="204.935,-333.5 316.3072,-333.5 "/>
<text text-anchor="start" x="212.935" y="-316.9" font-family="Times,serif" font-size="14.00" fill="#000000">x = AddTwo (x);</text>
<text text-anchor="middle" x="260.6211" y="-300.1" font-family="Times,serif" font-size="14.00" fill="#000000"></text>
<polyline fill="none" stroke="#000000" points="204.935,-291.9 316.3072,-291.9 "/>
<text text-anchor="start" x="212.935" y="-275.3" font-family="Times,serif" font-size="14.00" fill="#000000">D.1916 = x;</text>
<text text-anchor="middle" x="260.6211" y="-258.5" font-family="Times,serif" font-size="14.00" fill="#000000"></text>
</g>
<!-- fn_1_basic_block_0&#45;&gt;fn_1_basic_block_2 -->
<g id="edge5" class="edge">
<title>fn_1_basic_block_0:s-&gt;fn_1_basic_block_2:n</title>
<path fill="none" stroke="#0000ff" stroke-width="2" d="M255.6211,-453.2C255.6211,-440.725 258.4925,-435.5351 259.8833,-426.5888"/>
<polygon fill="#0000ff" stroke="#0000ff" stroke-width="2" points="263.3824,-426.7287 260.6211,-416.5 256.401,-426.2181 263.3824,-426.7287"/>
</g>
<!-- fn_1_basic_block_3 -->
<g id="node8" class="node">
<title>fn_1_basic_block_3</title>
<polygon fill="#d3d3d3" stroke="#000000" points="211.4093,-88.5 211.4093,-213.3 309.8329,-213.3 309.8329,-88.5 211.4093,-88.5"/>
<text text-anchor="start" x="219.4093" y="-196.7" font-family="Times,serif" font-size="14.00" fill="#000000">&lt;bb 3&gt;:</text>
<text text-anchor="middle" x="260.6211" y="-179.9" font-family="Times,serif" font-size="14.00" fill="#000000"></text>
<polyline fill="none" stroke="#000000" points="211.4093,-171.7 309.8329,-171.7 "/>
<text text-anchor="start" x="219.4093" y="-155.1" font-family="Times,serif" font-size="14.00" fill="#000000">&lt;L0&gt;:</text>
<text text-anchor="middle" x="260.6211" y="-138.3" font-family="Times,serif" font-size="14.00" fill="#000000"></text>
<polyline fill="none" stroke="#000000" points="211.4093,-130.1 309.8329,-130.1 "/>
<text text-anchor="start" x="219.4093" y="-113.5" font-family="Times,serif" font-size="14.00" fill="#000000">return D.1916;</text>
<text text-anchor="middle" x="260.6211" y="-96.7" font-family="Times,serif" font-size="14.00" fill="#000000"></text>
</g>
<!-- fn_1_basic_block_2&#45;&gt;fn_1_basic_block_3 -->
<g id="edge6" class="edge">
<title>fn_1_basic_block_2:s-&gt;fn_1_basic_block_3:n</title>
<path fill="none" stroke="#0000ff" stroke-width="2" d="M260.6211,-250.5C260.6211,-237.7056 260.6211,-232.2579 260.6211,-222.9073"/>
<polygon fill="#0000ff" stroke="#0000ff" stroke-width="2" points="264.1212,-222.9 260.6211,-212.9 257.1212,-222.9 264.1212,-222.9"/>
</g>
<!-- fn_1_basic_block_3&#45;&gt;fn_1_basic_block_1 -->
<g id="edge7" class="edge">
<title>fn_1_basic_block_3:s-&gt;fn_1_basic_block_1:n</title>
<path fill="none" stroke="#000000" stroke-width="2" d="M260.6211,-88.9C260.6211,-76.4719 260.6211,-71.1074 260.6211,-62.1007"/>
<polygon fill="#000000" stroke="#000000" stroke-width="2" points="264.1212,-62 260.6211,-52 257.1212,-62 264.1212,-62"/>
</g>
</g>
</svg>