<?xml version="1.0" encoding="UTF-8" standalone="no"?><!DOCTYPE svg PUBLIC "-//W3C//DTD SVG 1.1//EN" "http://www.w3.org/Graphics/SVG/1.1/DTD/svg11.dtd"><!-- Generated by graphviz version 2.40.1 (20161225.0304)
 --><!-- Title: A&#45;2.c.012t.cfg Pages: 1 --><svg xmlns="http://www.w3.org/2000/svg" xmlns:xlink="http://www.w3.org/1999/xlink" width="299pt" height="1062pt" viewBox="0.00 0.00 298.85 1062.40">
<g id="graph0" class="graph" transform="scale(1 1) rotate(0) translate(4 1058.4)">
<title>A-2.c.012t.cfg</title>
<polygon fill="#ffffff" stroke="transparent" points="-4,4 -4,-1058.4 294.8512,-1058.4 294.8512,4 -4,4"/>
<g id="clust1" class="cluster">
<title>cluster_main</title>
<polygon fill="none" stroke="#000000" stroke-dasharray="5,2" points="18.8512,-8 18.8512,-1046.4 282.8512,-1046.4 282.8512,-8 18.8512,-8"/>
<text text-anchor="middle" x="150.8512" y="-1029.8" font-family="Times,serif" font-size="14.00" fill="#000000">main ()</text>
</g>
<!-- fn_0_basic_block_0 -->
<g id="node1" class="node">
<title>fn_0_basic_block_0</title>
<polygon fill="#ffffff" stroke="#000000" points="114.8512,-1013.6 53.6112,-995.6 114.8512,-977.6 176.0912,-995.6 114.8512,-1013.6"/>
<polyline fill="none" stroke="#000000" points="65.1242,-998.984 65.1242,-992.216 "/>
<polyline fill="none" stroke="#000000" points="103.3382,-980.984 126.3642,-980.984 "/>
<polyline fill="none" stroke="#000000" points="164.5782,-992.216 164.5782,-998.984 "/>
<polyline fill="none" stroke="#000000" points="126.3642,-1010.216 103.3382,-1010.216 "/>
<text text-anchor="middle" x="114.8512" y="-991.4" font-family="Times,serif" font-size="14.00" fill="#000000">ENTRY</text>
</g>
<!-- fn_0_basic_block_1 -->
<g id="node2" class="node">
<title>fn_0_basic_block_1</title>
<polygon fill="#ffffff" stroke="#000000" points="224.8512,-52 177.9514,-34 224.8512,-16 271.751,-34 224.8512,-52"/>
<polyline fill="none" stroke="#000000" points="189.1547,-38.2998 189.1547,-29.7002 "/>
<polyline fill="none" stroke="#000000" points="213.648,-20.2998 236.0544,-20.2998 "/>
<polyline fill="none" stroke="#000000" points="260.5478,-29.7002 260.5478,-38.2998 "/>
<polyline fill="none" stroke="#000000" points="236.0544,-47.7002 213.648,-47.7002 "/>
<text text-anchor="middle" x="224.8512" y="-29.8" font-family="Times,serif" font-size="14.00" fill="#000000">EXIT</text>
</g>
<!-- fn_0_basic_block_0&#45;&gt;fn_0_basic_block_1 -->
<!-- fn_0_basic_block_2 -->
<g id="node3" class="node">
<title>fn_0_basic_block_2</title>
<polygon fill="#d3d3d3" stroke="#000000" points="46.4685,-765.9 46.4685,-941.1 183.2339,-941.1 183.2339,-765.9 46.4685,-765.9"/>
<text text-anchor="start" x="54.4685" y="-924.5" font-family="Times,serif" font-size="14.00" fill="#000000">&lt;bb 2&gt;:</text>
<text text-anchor="middle" x="114.8512" y="-907.7" font-family="Times,serif" font-size="14.00" fill="#000000"></text>
<polyline fill="none" stroke="#000000" points="46.4685,-899.5 183.2339,-899.5 "/>
<text text-anchor="start" x="54.4685" y="-882.9" font-family="Times,serif" font-size="14.00" fill="#000000">a = Z;</text>
<text text-anchor="middle" x="114.8512" y="-866.1" font-family="Times,serif" font-size="14.00" fill="#000000"></text>
<polyline fill="none" stroke="#000000" points="46.4685,-857.9 183.2339,-857.9 "/>
<text text-anchor="start" x="54.4685" y="-841.3" font-family="Times,serif" font-size="14.00" fill="#000000">if (a &lt;= 9)</text>
<text text-anchor="start" x="54.4685" y="-824.5" font-family="Times,serif" font-size="14.00" fill="#000000">  goto &lt;bb 3&gt;; [INV]</text>
<text text-anchor="start" x="54.4685" y="-807.7" font-family="Times,serif" font-size="14.00" fill="#000000">else</text>
<text text-anchor="start" x="54.4685" y="-790.9" font-family="Times,serif" font-size="14.00" fill="#000000">  goto &lt;bb 4&gt;; [INV]</text>
<text text-anchor="middle" x="114.8512" y="-774.1" font-family="Times,serif" font-size="14.00" fill="#000000"></text>
</g>
<!-- fn_0_basic_block_0&#45;&gt;fn_0_basic_block_2 -->
<g id="edge1" class="edge">
<title>fn_0_basic_block_0:s-&gt;fn_0_basic_block_2:n</title>
<path fill="none" stroke="#0000ff" stroke-width="2" d="M114.8512,-977.6C114.8512,-965.5667 114.8512,-960.3021 114.8512,-951.6531"/>
<polygon fill="#0000ff" stroke="#0000ff" stroke-width="2" points="118.3513,-951.5 114.8512,-941.5 111.3513,-951.5 118.3513,-951.5"/>
</g>
<!-- fn_0_basic_block_3 -->
<g id="node4" class="node">
<title>fn_0_basic_block_3</title>
<polygon fill="#d3d3d3" stroke="#000000" points="46.9685,-333.5 46.9685,-475.1 176.7339,-475.1 176.7339,-333.5 46.9685,-333.5"/>
<text text-anchor="start" x="54.9685" y="-458.5" font-family="Times,serif" font-size="14.00" fill="#000000">&lt;bb 3&gt;:</text>
<text text-anchor="middle" x="111.8512" y="-441.7" font-family="Times,serif" font-size="14.00" fill="#000000"></text>
<polyline fill="none" stroke="#000000" points="46.9685,-433.5 176.7339,-433.5 "/>
<text text-anchor="start" x="54.9685" y="-416.9" font-family="Times,serif" font-size="14.00" fill="#000000">b = 5;</text>
<text text-anchor="middle" x="111.8512" y="-400.1" font-family="Times,serif" font-size="14.00" fill="#000000"></text>
<polyline fill="none" stroke="#000000" points="46.9685,-391.9 176.7339,-391.9 "/>
<text text-anchor="start" x="54.9685" y="-375.3" font-family="Times,serif" font-size="14.00" fill="#000000">c = 17;</text>
<text text-anchor="start" x="54.9685" y="-358.5" font-family="Times,serif" font-size="14.00" fill="#000000">goto &lt;bb 6&gt;; [INV]</text>
<text text-anchor="middle" x="111.8512" y="-341.7" font-family="Times,serif" font-size="14.00" fill="#000000"></text>
</g>
<!-- fn_0_basic_block_2&#45;&gt;fn_0_basic_block_3 -->
<g id="edge2" class="edge">
<title>fn_0_basic_block_2:s-&gt;fn_0_basic_block_3:n</title>
<path fill="none" stroke="#000000" stroke-width="2" d="M114.8512,-765.5C114.8512,-639.9163 112.0073,-606.0516 111.8574,-485.3046"/>
<polygon fill="#000000" stroke="#000000" stroke-width="2" points="115.3575,-485.2978 111.8512,-475.3 108.3575,-485.3022 115.3575,-485.2978"/>
</g>
<!-- fn_0_basic_block_4 -->
<g id="node5" class="node">
<title>fn_0_basic_block_4</title>
<polygon fill="#d3d3d3" stroke="#000000" points="138.4685,-512.1 138.4685,-728.9 275.2339,-728.9 275.2339,-512.1 138.4685,-512.1"/>
<text text-anchor="start" x="146.4685" y="-712.3" font-family="Times,serif" font-size="14.00" fill="#000000">&lt;bb 4&gt;:</text>
<text text-anchor="middle" x="206.8512" y="-695.5" font-family="Times,serif" font-size="14.00" fill="#000000"></text>
<polyline fill="none" stroke="#000000" points="138.4685,-687.3 275.2339,-687.3 "/>
<text text-anchor="start" x="146.4685" y="-670.7" font-family="Times,serif" font-size="14.00" fill="#000000">b = 6;</text>
<text text-anchor="middle" x="206.8512" y="-653.9" font-family="Times,serif" font-size="14.00" fill="#000000"></text>
<polyline fill="none" stroke="#000000" points="138.4685,-645.7 275.2339,-645.7 "/>
<text text-anchor="start" x="146.4685" y="-629.1" font-family="Times,serif" font-size="14.00" fill="#000000">c = 20;</text>
<text text-anchor="middle" x="206.8512" y="-612.3" font-family="Times,serif" font-size="14.00" fill="#000000"></text>
<polyline fill="none" stroke="#000000" points="138.4685,-604.1 275.2339,-604.1 "/>
<text text-anchor="start" x="146.4685" y="-587.5" font-family="Times,serif" font-size="14.00" fill="#000000">if (a == 0)</text>
<text text-anchor="start" x="146.4685" y="-570.7" font-family="Times,serif" font-size="14.00" fill="#000000">  goto &lt;bb 5&gt;; [INV]</text>
<text text-anchor="start" x="146.4685" y="-553.9" font-family="Times,serif" font-size="14.00" fill="#000000">else</text>
<text text-anchor="start" x="146.4685" y="-537.1" font-family="Times,serif" font-size="14.00" fill="#000000">  goto &lt;bb 6&gt;; [INV]</text>
<text text-anchor="middle" x="206.8512" y="-520.3" font-family="Times,serif" font-size="14.00" fill="#000000"></text>
</g>
<!-- fn_0_basic_block_2&#45;&gt;fn_0_basic_block_4 -->
<g id="edge3" class="edge">
<title>fn_0_basic_block_2:s-&gt;fn_0_basic_block_4:n</title>
<path fill="none" stroke="#000000" stroke-width="2" d="M114.8512,-765.5C114.8512,-725.56 190.4098,-763.8192 204.5771,-738.5415"/>
<polygon fill="#000000" stroke="#000000" stroke-width="2" points="208.0559,-739.0261 206.8512,-728.5 201.2288,-737.4799 208.0559,-739.0261"/>
</g>
<!-- fn_0_basic_block_6 -->
<g id="node7" class="node">
<title>fn_0_basic_block_6</title>
<polygon fill="#d3d3d3" stroke="#000000" points="182.904,-88.5 182.904,-296.5 266.7984,-296.5 266.7984,-88.5 182.904,-88.5"/>
<text text-anchor="start" x="190.904" y="-279.9" font-family="Times,serif" font-size="14.00" fill="#000000">&lt;bb 6&gt;:</text>
<text text-anchor="middle" x="224.8512" y="-263.1" font-family="Times,serif" font-size="14.00" fill="#000000"></text>
<polyline fill="none" stroke="#000000" points="182.904,-254.9 266.7984,-254.9 "/>
<text text-anchor="start" x="190.904" y="-238.3" font-family="Times,serif" font-size="14.00" fill="#000000">_1 = b * 10;</text>
<text text-anchor="middle" x="224.8512" y="-221.5" font-family="Times,serif" font-size="14.00" fill="#000000"></text>
<polyline fill="none" stroke="#000000" points="182.904,-213.3 266.7984,-213.3 "/>
<text text-anchor="start" x="190.904" y="-196.7" font-family="Times,serif" font-size="14.00" fill="#000000">_2 = c + _1;</text>
<text text-anchor="middle" x="224.8512" y="-179.9" font-family="Times,serif" font-size="14.00" fill="#000000"></text>
<polyline fill="none" stroke="#000000" points="182.904,-171.7 266.7984,-171.7 "/>
<text text-anchor="start" x="190.904" y="-155.1" font-family="Times,serif" font-size="14.00" fill="#000000">Z = _2;</text>
<text text-anchor="middle" x="224.8512" y="-138.3" font-family="Times,serif" font-size="14.00" fill="#000000"></text>
<polyline fill="none" stroke="#000000" points="182.904,-130.1 266.7984,-130.1 "/>
<text text-anchor="start" x="190.904" y="-113.5" font-family="Times,serif" font-size="14.00" fill="#000000">return;</text>
<text text-anchor="middle" x="224.8512" y="-96.7" font-family="Times,serif" font-size="14.00" fill="#000000"></text>
</g>
<!-- fn_0_basic_block_3&#45;&gt;fn_0_basic_block_6 -->
<g id="edge4" class="edge">
<title>fn_0_basic_block_3:s-&gt;fn_0_basic_block_6:n</title>
<path fill="none" stroke="#0000ff" stroke-width="2" d="M111.8512,-333.3C111.8512,-284.4018 208.7002,-339.7705 223.0763,-306.3494"/>
<polygon fill="#0000ff" stroke="#0000ff" stroke-width="2" points="226.5221,-306.9622 224.8512,-296.5 219.6331,-305.7207 226.5221,-306.9622"/>
</g>
<!-- fn_0_basic_block_5 -->
<g id="node6" class="node">
<title>fn_0_basic_block_5</title>
<polygon fill="#d3d3d3" stroke="#000000" points="194.7613,-362.7 194.7613,-445.9 254.9411,-445.9 254.9411,-362.7 194.7613,-362.7"/>
<text text-anchor="start" x="202.7613" y="-429.3" font-family="Times,serif" font-size="14.00" fill="#000000">&lt;bb 5&gt;:</text>
<text text-anchor="middle" x="224.8512" y="-412.5" font-family="Times,serif" font-size="14.00" fill="#000000"></text>
<polyline fill="none" stroke="#000000" points="194.7613,-404.3 254.9411,-404.3 "/>
<text text-anchor="start" x="202.7613" y="-387.7" font-family="Times,serif" font-size="14.00" fill="#000000">c = 0;</text>
<text text-anchor="middle" x="224.8512" y="-370.9" font-family="Times,serif" font-size="14.00" fill="#000000"></text>
</g>
<!-- fn_0_basic_block_4&#45;&gt;fn_0_basic_block_5 -->
<g id="edge5" class="edge">
<title>fn_0_basic_block_4:s-&gt;fn_0_basic_block_5:n</title>
<path fill="none" stroke="#000000" stroke-width="2" d="M206.8512,-512.5C206.8512,-485.7018 220.7558,-478.425 224.1233,-456.3546"/>
<polygon fill="#000000" stroke="#000000" stroke-width="2" points="227.6199,-456.5267 224.8512,-446.3 220.6382,-456.0211 227.6199,-456.5267"/>
</g>
<!-- fn_0_basic_block_4&#45;&gt;fn_0_basic_block_6 -->
<g id="edge6" class="edge">
<title>fn_0_basic_block_4:s-&gt;fn_0_basic_block_6:n</title>
<path fill="none" stroke="#000000" stroke-width="2" d="M206.8512,-512.5C206.8512,-482.3216 249.4323,-502.111 263.8512,-475.6 294.1325,-419.9242 289.0706,-391.144 263.8512,-333 256.1019,-315.1337 234.8227,-317.9932 227.4257,-306.493"/>
<polygon fill="#000000" stroke="#000000" stroke-width="2" points="230.7355,-305.3106 224.8512,-296.5 223.9568,-307.057 230.7355,-305.3106"/>
</g>
<!-- fn_0_basic_block_5&#45;&gt;fn_0_basic_block_6 -->
<g id="edge7" class="edge">
<title>fn_0_basic_block_5:s-&gt;fn_0_basic_block_6:n</title>
<path fill="none" stroke="#0000ff" stroke-width="2" d="M224.8512,-362.3C224.8512,-336.7111 224.8512,-327.9149 224.8512,-306.5242"/>
<polygon fill="#0000ff" stroke="#0000ff" stroke-width="2" points="228.3513,-306.5 224.8512,-296.5 221.3513,-306.5 228.3513,-306.5"/>
</g>
<!-- fn_0_basic_block_6&#45;&gt;fn_0_basic_block_1 -->
<g id="edge8" class="edge">
<title>fn_0_basic_block_6:s-&gt;fn_0_basic_block_1:n</title>
<path fill="none" stroke="#000000" stroke-width="2" d="M224.8512,-88.5C224.8512,-76.3333 224.8512,-71.0104 224.8512,-62.2656"/>
<polygon fill="#000000" stroke="#000000" stroke-width="2" points="228.3513,-62 224.8512,-52 221.3513,-62 228.3513,-62"/>
</g>
</g>
</svg>