<?xml version="1.0" encoding="UTF-8" standalone="no"?><!DOCTYPE svg PUBLIC "-//W3C//DTD SVG 1.1//EN" "http://www.w3.org/Graphics/SVG/1.1/DTD/svg11.dtd"><!-- Generated by graphviz version 2.40.1 (20161225.0304)
 --><!-- Title: A&#45;1.c.012t.cfg Pages: 1 --><svg xmlns="http://www.w3.org/2000/svg" xmlns:xlink="http://www.w3.org/1999/xlink" width="192pt" height="584pt" viewBox="0.00 0.00 192.33 584.20">
<g id="graph0" class="graph" transform="scale(1 1) rotate(0) translate(4 580.2)">
<title>A-1.c.012t.cfg</title>
<polygon fill="#ffffff" stroke="transparent" points="-4,4 -4,-580.2 188.3307,-580.2 188.3307,4 -4,4"/>
<g id="clust1" class="cluster">
<title>cluster_main</title>
<polygon fill="none" stroke="#000000" stroke-dasharray="5,2" points="38.3307,-8 38.3307,-568.2 176.3307,-568.2 176.3307,-8 38.3307,-8"/>
<text text-anchor="middle" x="107.3307" y="-551.6" font-family="Times,serif" font-size="14.00" fill="#000000">main ()</text>
</g>
<!-- fn_0_basic_block_0 -->
<g id="node1" class="node">
<title>fn_0_basic_block_0</title>
<polygon fill="#ffffff" stroke="#000000" points="107.3307,-535.4 46.0907,-517.4 107.3307,-499.4 168.5706,-517.4 107.3307,-535.4"/>
<polyline fill="none" stroke="#000000" points="57.6037,-520.784 57.6037,-514.016 "/>
<polyline fill="none" stroke="#000000" points="95.8177,-502.784 118.8437,-502.784 "/>
<polyline fill="none" stroke="#000000" points="157.0577,-514.016 157.0577,-520.784 "/>
<polyline fill="none" stroke="#000000" points="118.8437,-532.016 95.8177,-532.016 "/>
<text text-anchor="middle" x="107.3307" y="-513.2" font-family="Times,serif" font-size="14.00" fill="#000000">ENTRY</text>
</g>
<!-- fn_0_basic_block_1 -->
<g id="node2" class="node">
<title>fn_0_basic_block_1</title>
<polygon fill="#ffffff" stroke="#000000" points="108.3307,-52 61.4309,-34 108.3307,-16 155.2305,-34 108.3307,-52"/>
<polyline fill="none" stroke="#000000" points="72.6341,-38.2998 72.6341,-29.7002 "/>
<polyline fill="none" stroke="#000000" points="97.1275,-20.2998 119.5339,-20.2998 "/>
<polyline fill="none" stroke="#000000" points="144.0272,-29.7002 144.0272,-38.2998 "/>
<polyline fill="none" stroke="#000000" points="119.5339,-47.7002 97.1275,-47.7002 "/>
<text text-anchor="middle" x="108.3307" y="-29.8" font-family="Times,serif" font-size="14.00" fill="#000000">EXIT</text>
</g>
<!-- fn_0_basic_block_0&#45;&gt;fn_0_basic_block_1 -->
<!-- fn_0_basic_block_2 -->
<g id="node3" class="node">
<title>fn_0_basic_block_2</title>
<polygon fill="#d3d3d3" stroke="#000000" points="66.3835,-88.5 66.3835,-462.9 150.2779,-462.9 150.2779,-88.5 66.3835,-88.5"/>
<text text-anchor="start" x="74.3835" y="-446.3" font-family="Times,serif" font-size="14.00" fill="#000000">&lt;bb 2&gt;:</text>
<text text-anchor="middle" x="108.3307" y="-429.5" font-family="Times,serif" font-size="14.00" fill="#000000"></text>
<polyline fill="none" stroke="#000000" points="66.3835,-421.3 150.2779,-421.3 "/>
<text text-anchor="start" x="74.3835" y="-404.7" font-family="Times,serif" font-size="14.00" fill="#000000">p = 6;</text>
<text text-anchor="middle" x="108.3307" y="-387.9" font-family="Times,serif" font-size="14.00" fill="#000000"></text>
<polyline fill="none" stroke="#000000" points="66.3835,-379.7 150.2779,-379.7 "/>
<text text-anchor="start" x="74.3835" y="-363.1" font-family="Times,serif" font-size="14.00" fill="#000000">a = 10;</text>
<text text-anchor="middle" x="108.3307" y="-346.3" font-family="Times,serif" font-size="14.00" fill="#000000"></text>
<polyline fill="none" stroke="#000000" points="66.3835,-338.1 150.2779,-338.1 "/>
<text text-anchor="start" x="74.3835" y="-321.5" font-family="Times,serif" font-size="14.00" fill="#000000">b = 20;</text>
<text text-anchor="middle" x="108.3307" y="-304.7" font-family="Times,serif" font-size="14.00" fill="#000000"></text>
<polyline fill="none" stroke="#000000" points="66.3835,-296.5 150.2779,-296.5 "/>
<text text-anchor="start" x="74.3835" y="-279.9" font-family="Times,serif" font-size="14.00" fill="#000000">_1 = a * b;</text>
<text text-anchor="middle" x="108.3307" y="-263.1" font-family="Times,serif" font-size="14.00" fill="#000000"></text>
<polyline fill="none" stroke="#000000" points="66.3835,-254.9 150.2779,-254.9 "/>
<text text-anchor="start" x="74.3835" y="-238.3" font-family="Times,serif" font-size="14.00" fill="#000000">c = _1 + 25;</text>
<text text-anchor="middle" x="108.3307" y="-221.5" font-family="Times,serif" font-size="14.00" fill="#000000"></text>
<polyline fill="none" stroke="#000000" points="66.3835,-213.3 150.2779,-213.3 "/>
<text text-anchor="start" x="74.3835" y="-196.7" font-family="Times,serif" font-size="14.00" fill="#000000">p = 6;</text>
<text text-anchor="middle" x="108.3307" y="-179.9" font-family="Times,serif" font-size="14.00" fill="#000000"></text>
<polyline fill="none" stroke="#000000" points="66.3835,-171.7 150.2779,-171.7 "/>
<text text-anchor="start" x="74.3835" y="-155.1" font-family="Times,serif" font-size="14.00" fill="#000000">q = Z;</text>
<text text-anchor="middle" x="108.3307" y="-138.3" font-family="Times,serif" font-size="14.00" fill="#000000"></text>
<polyline fill="none" stroke="#000000" points="66.3835,-130.1 150.2779,-130.1 "/>
<text text-anchor="start" x="74.3835" y="-113.5" font-family="Times,serif" font-size="14.00" fill="#000000">return;</text>
<text text-anchor="middle" x="108.3307" y="-96.7" font-family="Times,serif" font-size="14.00" fill="#000000"></text>
</g>
<!-- fn_0_basic_block_0&#45;&gt;fn_0_basic_block_2 -->
<g id="edge1" class="edge">
<title>fn_0_basic_block_0:s-&gt;fn_0_basic_block_2:n</title>
<path fill="none" stroke="#0000ff" stroke-width="2" d="M107.3307,-499.4C107.3307,-487.0346 107.9049,-481.7051 108.1831,-472.7477"/>
<polygon fill="#0000ff" stroke="#0000ff" stroke-width="2" points="111.6834,-472.7503 108.3307,-462.7 104.6841,-472.6475 111.6834,-472.7503"/>
</g>
<!-- fn_0_basic_block_2&#45;&gt;fn_0_basic_block_1 -->
<g id="edge2" class="edge">
<title>fn_0_basic_block_2:s-&gt;fn_0_basic_block_1:n</title>
<path fill="none" stroke="#000000" stroke-width="2" d="M108.3307,-88.7C108.3307,-76.3392 108.3307,-71.0038 108.3307,-62.046"/>
<polygon fill="#000000" stroke="#000000" stroke-width="2" points="111.8308,-62 108.3307,-52 104.8308,-62 111.8308,-62"/>
</g>
</g>
</svg>